<?xml version="1.0" encoding="UTF-8" standalone="no"?>
<!DOCTYPE svg PUBLIC "-//W3C//DTD SVG 1.1//EN"
 "http://www.w3.org/Graphics/SVG/1.1/DTD/svg11.dtd">
<!-- Generated by graphviz version 2.43.0 (0)
 -->
<!-- Title: WarmupStrategies Pages: 1 -->
<svg width="500pt" height="109pt"
 viewBox="0.00 0.00 500.00 109.00" xmlns="http://www.w3.org/2000/svg" xmlns:xlink="http://www.w3.org/1999/xlink">
<g id="graph0" class="graph" transform="scale(1 1) rotate(0) translate(4 105)">
<title>WarmupStrategies</title>
<polygon fill="white" stroke="transparent" points="-4,4 -4,-105 496,-105 496,4 -4,4"/>
<!-- Init -->
<g id="node1" class="node">
<title>Init</title>
<path fill="#fffacd" stroke="black" d="M291.5,-101C291.5,-101 226.5,-101 226.5,-101 220.5,-101 214.5,-95 214.5,-89 214.5,-89 214.5,-77 214.5,-77 214.5,-71 220.5,-65 226.5,-65 226.5,-65 291.5,-65 291.5,-65 297.5,-65 303.5,-71 303.5,-77 303.5,-77 303.5,-89 303.5,-89 303.5,-95 297.5,-101 291.5,-101"/>
<text text-anchor="middle" x="259" y="-80.5" font-family="Helvetica,sans-Serif" font-size="10.00">Initialize Priors</text>
</g>
<!-- Balanced -->
<g id="node2" class="node">
<title>Balanced</title>
<path fill="#00ced1" stroke="black" d="M174,-36C174,-36 12,-36 12,-36 6,-36 0,-30 0,-24 0,-24 0,-12 0,-12 0,-6 6,0 12,0 12,0 174,0 174,0 180,0 186,-6 186,-12 186,-12 186,-24 186,-24 186,-30 180,-36 174,-36"/>
<text text-anchor="middle" x="93" y="-21" font-family="Helvetica,sans-Serif" font-size="10.00">BalancedWarmup (Recommended)</text>
<text text-anchor="middle" x="93" y="-10" font-family="Helvetica,sans-Serif" font-size="10.00">K obs per reagent</text>
</g>
<!-- Init&#45;&gt;Balanced -->
<g id="edge1" class="edge">
<title>Init&#45;&gt;Balanced</title>
<path fill="none" stroke="black" d="M214.08,-64.95C193.5,-57.14 168.94,-47.82 147.33,-39.62"/>
<polygon fill="black" stroke="black" points="148.55,-36.34 137.96,-36.06 146.07,-42.88 148.55,-36.34"/>
</g>
<!-- Standard -->
<g id="node3" class="node">
<title>Standard</title>
<path fill="#afeeee" stroke="black" d="M297.5,-36C297.5,-36 220.5,-36 220.5,-36 214.5,-36 208.5,-30 208.5,-24 208.5,-24 208.5,-12 208.5,-12 208.5,-6 214.5,0 220.5,0 220.5,0 297.5,0 297.5,0 303.5,0 309.5,-6 309.5,-12 309.5,-12 309.5,-24 309.5,-24 309.5,-30 303.5,-36 297.5,-36"/>
<text text-anchor="middle" x="259" y="-21" font-family="Helvetica,sans-Serif" font-size="10.00">StandardWarmup</text>
<text text-anchor="middle" x="259" y="-10" font-family="Helvetica,sans-Serif" font-size="10.00">Random partners</text>
</g>
<!-- Init&#45;&gt;Standard -->
<g id="edge2" class="edge">
<title>Init&#45;&gt;Standard</title>
<path fill="none" stroke="black" d="M259,-64.78C259,-59.09 259,-52.61 259,-46.34"/>
<polygon fill="black" stroke="black" points="262.5,-46.19 259,-36.19 255.5,-46.19 262.5,-46.19"/>
</g>
<!-- Enhanced -->
<g id="node4" class="node">
<title>Enhanced</title>
<path fill="#afeeee" stroke="black" d="M480,-36C480,-36 344,-36 344,-36 338,-36 332,-30 332,-24 332,-24 332,-12 332,-12 332,-6 338,0 344,0 344,0 480,0 480,0 486,0 492,-6 492,-12 492,-12 492,-24 492,-24 492,-30 486,-36 480,-36"/>
<text text-anchor="middle" x="412" y="-21" font-family="Helvetica,sans-Serif" font-size="10.00">EnhancedWarmup</text>
<text text-anchor="middle" x="412" y="-10" font-family="Helvetica,sans-Serif" font-size="10.00">Parallel pairing (Legacy RWS)</text>
</g>
<!-- Init&#45;&gt;Enhanced -->
<g id="edge3" class="edge">
<title>Init&#45;&gt;Enhanced</title>
<path fill="none" stroke="black" d="M300.4,-64.95C319.11,-57.25 341.4,-48.07 361.12,-39.95"/>
<polygon fill="black" stroke="black" points="362.65,-43.11 370.56,-36.06 359.98,-36.63 362.65,-43.11"/>
</g>
</g>
</svg>
