<?xml version="1.0" encoding="UTF-8" standalone="no"?>
<!DOCTYPE svg PUBLIC "-//W3C//DTD SVG 1.1//EN"
 "http://www.w3.org/Graphics/SVG/1.1/DTD/svg11.dtd">
<!-- Generated by graphviz version 2.43.0 (0)
 -->
<!-- Title: Configuration Pages: 1 -->
<svg width="383pt" height="1277pt"
 viewBox="0.00 0.00 383.00 1277.00" xmlns="http://www.w3.org/2000/svg" xmlns:xlink="http://www.w3.org/1999/xlink">
<g id="graph0" class="graph" transform="scale(1 1) rotate(0) translate(4 1273)">
<title>Configuration</title>
<polygon fill="white" stroke="transparent" points="-4,4 -4,-1273 379,-1273 379,4 -4,4"/>
<!-- ThompsonSamplingConfig -->
<g id="node1" class="node">
<title>ThompsonSamplingConfig</title>
<path fill="#ffd700" stroke="black" d="M258.5,-1269C258.5,-1269 138.5,-1269 138.5,-1269 132.5,-1269 126.5,-1263 126.5,-1257 126.5,-1257 126.5,-1245 126.5,-1245 126.5,-1239 132.5,-1233 138.5,-1233 138.5,-1233 258.5,-1233 258.5,-1233 264.5,-1233 270.5,-1239 270.5,-1245 270.5,-1245 270.5,-1257 270.5,-1257 270.5,-1263 264.5,-1269 258.5,-1269"/>
<text text-anchor="middle" x="198.5" y="-1248.5" font-family="Helvetica,sans-Serif" font-size="10.00">ThompsonSamplingConfig</text>
</g>
<!-- strategy_label -->
<g id="node2" class="node">
<title>strategy_label</title>
<path fill="lightgrey" stroke="transparent" d="M185.5,-1202C185.5,-1202 121.5,-1202 121.5,-1202 115.5,-1202 109.5,-1196 109.5,-1190 109.5,-1190 109.5,-1178 109.5,-1178 109.5,-1172 115.5,-1166 121.5,-1166 121.5,-1166 185.5,-1166 185.5,-1166 191.5,-1166 197.5,-1172 197.5,-1178 197.5,-1178 197.5,-1190 197.5,-1190 197.5,-1196 191.5,-1202 185.5,-1202"/>
<text text-anchor="middle" x="153.5" y="-1181.5" font-family="Helvetica Bold" font-size="10.00">strategy_config</text>
</g>
<!-- ThompsonSamplingConfig&#45;&gt;strategy_label -->
<!-- ThompsonSamplingConfig&#45;&gt;strategy_label -->
<g id="edge19" class="edge">
<title>ThompsonSamplingConfig&#45;&gt;strategy_label</title>
<path fill="none" stroke="black" stroke-width="2" d="M191.36,-1232.92C187.18,-1226.11 181.81,-1218.12 176.39,-1210.64"/>
<polygon fill="black" stroke="black" stroke-width="2" points="178.88,-1208.11 170.09,-1202.19 173.27,-1212.3 178.88,-1208.11"/>
</g>
<!-- warmup_label -->
<g id="node8" class="node">
<title>warmup_label</title>
<path fill="lightgrey" stroke="transparent" d="M218,-791C218,-791 153,-791 153,-791 147,-791 141,-785 141,-779 141,-779 141,-767 141,-767 141,-761 147,-755 153,-755 153,-755 218,-755 218,-755 224,-755 230,-761 230,-767 230,-767 230,-779 230,-779 230,-785 224,-791 218,-791"/>
<text text-anchor="middle" x="185.5" y="-770.5" font-family="Helvetica Bold" font-size="10.00">warmup_config</text>
</g>
<!-- ThompsonSamplingConfig&#45;&gt;warmup_label -->
<g id="edge20" class="edge">
<title>ThompsonSamplingConfig&#45;&gt;warmup_label</title>
<path fill="none" stroke="black" stroke-width="2" d="M212.69,-1232.97C221.63,-1220.5 231.5,-1202.72 231.5,-1185 231.5,-1185 231.5,-1185 231.5,-839 231.5,-823.87 223.09,-809.8 213.47,-798.64"/>
<polygon fill="black" stroke="black" stroke-width="2" points="215.74,-795.95 206.35,-791.06 210.64,-800.75 215.74,-795.95"/>
</g>
<!-- evaluator_label -->
<g id="node12" class="node">
<title>evaluator_label</title>
<path fill="lightgrey" stroke="transparent" d="M268.5,-514C268.5,-514 198.5,-514 198.5,-514 192.5,-514 186.5,-508 186.5,-502 186.5,-502 186.5,-490 186.5,-490 186.5,-484 192.5,-478 198.5,-478 198.5,-478 268.5,-478 268.5,-478 274.5,-478 280.5,-484 280.5,-490 280.5,-490 280.5,-502 280.5,-502 280.5,-508 274.5,-514 268.5,-514"/>
<text text-anchor="middle" x="233.5" y="-493.5" font-family="Helvetica Bold" font-size="10.00">evaluator_config</text>
</g>
<!-- ThompsonSamplingConfig&#45;&gt;evaluator_label -->
<g id="edge21" class="edge">
<title>ThompsonSamplingConfig&#45;&gt;evaluator_label</title>
<path fill="none" stroke="black" stroke-width="2" d="M229.63,-1232.85C245.5,-1221.62 261.5,-1205.27 261.5,-1185 261.5,-1185 261.5,-1185 261.5,-562 261.5,-548.46 256.32,-534.54 250.41,-523.07"/>
<polygon fill="black" stroke="black" stroke-width="2" points="253.31,-521.09 245.37,-514.08 247.2,-524.51 253.31,-521.09"/>
</g>
<!-- GreedyConfig -->
<g id="node3" class="node">
<title>GreedyConfig</title>
<path fill="#ffb6c1" stroke="black" d="M77,-1126C77,-1126 18,-1126 18,-1126 12,-1126 6,-1120 6,-1114 6,-1114 6,-1102 6,-1102 6,-1096 12,-1090 18,-1090 18,-1090 77,-1090 77,-1090 83,-1090 89,-1096 89,-1102 89,-1102 89,-1114 89,-1114 89,-1120 83,-1126 77,-1126"/>
<text text-anchor="middle" x="47.5" y="-1105.5" font-family="Helvetica,sans-Serif" font-size="10.00">GreedyConfig</text>
</g>
<!-- strategy_label&#45;&gt;GreedyConfig -->
<!-- strategy_label&#45;&gt;GreedyConfig -->
<g id="edge22" class="edge">
<title>strategy_label&#45;&gt;GreedyConfig</title>
<path fill="none" stroke="black" stroke-dasharray="5,2" d="M109.41,-1171.53C96.53,-1166.68 83.09,-1160.02 72.5,-1151 67.41,-1146.67 63.09,-1141.03 59.54,-1135.29"/>
<polygon fill="black" stroke="black" points="62.51,-1133.43 54.6,-1126.38 56.39,-1136.82 62.51,-1133.43"/>
<text text-anchor="middle" x="86.5" y="-1143.8" font-family="Helvetica,sans-Serif" font-size="9.00">one of</text>
</g>
<!-- RouletteWheelConfig -->
<g id="node4" class="node">
<title>RouletteWheelConfig</title>
<path fill="#ffb6c1" stroke="black" d="M107,-1059C107,-1059 12,-1059 12,-1059 6,-1059 0,-1053 0,-1047 0,-1047 0,-1035 0,-1035 0,-1029 6,-1023 12,-1023 12,-1023 107,-1023 107,-1023 113,-1023 119,-1029 119,-1035 119,-1035 119,-1047 119,-1047 119,-1053 113,-1059 107,-1059"/>
<text text-anchor="middle" x="59.5" y="-1038.5" font-family="Helvetica,sans-Serif" font-size="10.00">RouletteWheelConfig</text>
</g>
<!-- strategy_label&#45;&gt;RouletteWheelConfig -->
<g id="edge23" class="edge">
<title>strategy_label&#45;&gt;RouletteWheelConfig</title>
<path fill="none" stroke="black" stroke-dasharray="5,2" d="M140.76,-1165.95C137.33,-1161.18 133.69,-1155.95 130.5,-1151 113.58,-1124.72 112.69,-1116.11 95.5,-1090 90.56,-1082.5 84.86,-1074.6 79.48,-1067.43"/>
<polygon fill="black" stroke="black" points="82.21,-1065.24 73.37,-1059.41 76.64,-1069.48 82.21,-1065.24"/>
</g>
<!-- UCBConfig -->
<g id="node5" class="node">
<title>UCBConfig</title>
<path fill="#ffb6c1" stroke="black" d="M137.5,-992C137.5,-992 93.5,-992 93.5,-992 87.5,-992 81.5,-986 81.5,-980 81.5,-980 81.5,-968 81.5,-968 81.5,-962 87.5,-956 93.5,-956 93.5,-956 137.5,-956 137.5,-956 143.5,-956 149.5,-962 149.5,-968 149.5,-968 149.5,-980 149.5,-980 149.5,-986 143.5,-992 137.5,-992"/>
<text text-anchor="middle" x="115.5" y="-971.5" font-family="Helvetica,sans-Serif" font-size="10.00">UCBConfig</text>
</g>
<!-- strategy_label&#45;&gt;UCBConfig -->
<g id="edge24" class="edge">
<title>strategy_label&#45;&gt;UCBConfig</title>
<path fill="none" stroke="black" stroke-dasharray="5,2" d="M150.91,-1165.66C146.44,-1136.23 136.77,-1074.67 126.5,-1023 125.17,-1016.29 123.59,-1009.08 122.05,-1002.34"/>
<polygon fill="black" stroke="black" points="125.39,-1001.23 119.71,-992.28 118.57,-1002.81 125.39,-1001.23"/>
</g>
<!-- EpsilonGreedyConfig -->
<g id="node6" class="node">
<title>EpsilonGreedyConfig</title>
<path fill="#ffb6c1" stroke="black" d="M167.5,-925C167.5,-925 73.5,-925 73.5,-925 67.5,-925 61.5,-919 61.5,-913 61.5,-913 61.5,-901 61.5,-901 61.5,-895 67.5,-889 73.5,-889 73.5,-889 167.5,-889 167.5,-889 173.5,-889 179.5,-895 179.5,-901 179.5,-901 179.5,-913 179.5,-913 179.5,-919 173.5,-925 167.5,-925"/>
<text text-anchor="middle" x="120.5" y="-904.5" font-family="Helvetica,sans-Serif" font-size="10.00">EpsilonGreedyConfig</text>
</g>
<!-- strategy_label&#45;&gt;EpsilonGreedyConfig -->
<g id="edge25" class="edge">
<title>strategy_label&#45;&gt;EpsilonGreedyConfig</title>
<path fill="none" stroke="black" stroke-dasharray="5,2" d="M160.1,-1165.94C165.24,-1151.12 171.5,-1128.96 171.5,-1109 171.5,-1109 171.5,-1109 171.5,-973 171.5,-957.38 162.28,-943.29 151.67,-932.26"/>
<polygon fill="black" stroke="black" points="153.86,-929.5 144.21,-925.12 149.02,-934.56 153.86,-929.5"/>
</g>
<!-- BayesUCBConfig -->
<g id="node7" class="node">
<title>BayesUCBConfig</title>
<path fill="#ffb6c1" stroke="black" d="M197.5,-858C197.5,-858 123.5,-858 123.5,-858 117.5,-858 111.5,-852 111.5,-846 111.5,-846 111.5,-834 111.5,-834 111.5,-828 117.5,-822 123.5,-822 123.5,-822 197.5,-822 197.5,-822 203.5,-822 209.5,-828 209.5,-834 209.5,-834 209.5,-846 209.5,-846 209.5,-852 203.5,-858 197.5,-858"/>
<text text-anchor="middle" x="160.5" y="-837.5" font-family="Helvetica,sans-Serif" font-size="10.00">BayesUCBConfig</text>
</g>
<!-- strategy_label&#45;&gt;BayesUCBConfig -->
<g id="edge26" class="edge">
<title>strategy_label&#45;&gt;BayesUCBConfig</title>
<path fill="none" stroke="black" stroke-dasharray="5,2" d="M172.75,-1165.85C186.1,-1152 201.5,-1131.2 201.5,-1109 201.5,-1109 201.5,-1109 201.5,-906 201.5,-891.29 193.9,-877.2 185.24,-865.92"/>
<polygon fill="black" stroke="black" points="187.93,-863.68 178.84,-858.23 182.55,-868.15 187.93,-863.68"/>
</g>
<!-- GreedyConfig&#45;&gt;RouletteWheelConfig -->
<!-- RouletteWheelConfig&#45;&gt;UCBConfig -->
<!-- UCBConfig&#45;&gt;EpsilonGreedyConfig -->
<!-- EpsilonGreedyConfig&#45;&gt;BayesUCBConfig -->
<!-- BayesUCBConfig&#45;&gt;warmup_label -->
<!-- BalancedWarmupConfig -->
<g id="node9" class="node">
<title>BalancedWarmupConfig</title>
<path fill="#00ced1" stroke="black" d="M159,-715C159,-715 50,-715 50,-715 44,-715 38,-709 38,-703 38,-703 38,-691 38,-691 38,-685 44,-679 50,-679 50,-679 159,-679 159,-679 165,-679 171,-685 171,-691 171,-691 171,-703 171,-703 171,-709 165,-715 159,-715"/>
<text text-anchor="middle" x="104.5" y="-694.5" font-family="Helvetica,sans-Serif" font-size="10.00">BalancedWarmupConfig</text>
</g>
<!-- warmup_label&#45;&gt;BalancedWarmupConfig -->
<!-- warmup_label&#45;&gt;BalancedWarmupConfig -->
<g id="edge27" class="edge">
<title>warmup_label&#45;&gt;BalancedWarmupConfig</title>
<path fill="none" stroke="black" stroke-dasharray="5,2" d="M166.71,-754.84C155.98,-745.03 142.36,-732.58 130.59,-721.84"/>
<polygon fill="black" stroke="black" points="132.93,-719.23 123.18,-715.07 128.21,-724.4 132.93,-719.23"/>
<text text-anchor="middle" x="163.5" y="-732.8" font-family="Helvetica,sans-Serif" font-size="9.00">one of</text>
</g>
<!-- StandardWarmupConfig -->
<g id="node10" class="node">
<title>StandardWarmupConfig</title>
<path fill="#afeeee" stroke="black" d="M189,-648C189,-648 82,-648 82,-648 76,-648 70,-642 70,-636 70,-636 70,-624 70,-624 70,-618 76,-612 82,-612 82,-612 189,-612 189,-612 195,-612 201,-618 201,-624 201,-624 201,-636 201,-636 201,-642 195,-648 189,-648"/>
<text text-anchor="middle" x="135.5" y="-627.5" font-family="Helvetica,sans-Serif" font-size="10.00">StandardWarmupConfig</text>
</g>
<!-- warmup_label&#45;&gt;StandardWarmupConfig -->
<g id="edge28" class="edge">
<title>warmup_label&#45;&gt;StandardWarmupConfig</title>
<path fill="none" stroke="black" stroke-dasharray="5,2" d="M187.42,-754.77C188.85,-735.49 189.04,-703.73 178.5,-679 174.91,-670.57 169.21,-662.61 163.12,-655.7"/>
<polygon fill="black" stroke="black" points="165.32,-652.93 155.9,-648.09 160.24,-657.75 165.32,-652.93"/>
</g>
<!-- EnhancedWarmupConfig -->
<g id="node11" class="node">
<title>EnhancedWarmupConfig</title>
<path fill="#afeeee" stroke="black" d="M227,-581C227,-581 116,-581 116,-581 110,-581 104,-575 104,-569 104,-569 104,-557 104,-557 104,-551 110,-545 116,-545 116,-545 227,-545 227,-545 233,-545 239,-551 239,-557 239,-557 239,-569 239,-569 239,-575 233,-581 227,-581"/>
<text text-anchor="middle" x="171.5" y="-560.5" font-family="Helvetica,sans-Serif" font-size="10.00">EnhancedWarmupConfig</text>
</g>
<!-- warmup_label&#45;&gt;EnhancedWarmupConfig -->
<g id="edge29" class="edge">
<title>warmup_label&#45;&gt;EnhancedWarmupConfig</title>
<path fill="none" stroke="black" stroke-dasharray="5,2" d="M193.11,-754.7C205.13,-724.82 225.51,-661.94 208.5,-612 205.78,-604.02 201.14,-596.33 196.04,-589.53"/>
<polygon fill="black" stroke="black" points="198.48,-586.99 189.45,-581.44 193.05,-591.41 198.48,-586.99"/>
</g>
<!-- BalancedWarmupConfig&#45;&gt;StandardWarmupConfig -->
<!-- StandardWarmupConfig&#45;&gt;EnhancedWarmupConfig -->
<!-- EnhancedWarmupConfig&#45;&gt;evaluator_label -->
<!-- LookupEvaluatorConfig -->
<g id="node13" class="node">
<title>LookupEvaluatorConfig</title>
<path fill="#dda0dd" stroke="black" d="M154.5,-438C154.5,-438 50.5,-438 50.5,-438 44.5,-438 38.5,-432 38.5,-426 38.5,-426 38.5,-414 38.5,-414 38.5,-408 44.5,-402 50.5,-402 50.5,-402 154.5,-402 154.5,-402 160.5,-402 166.5,-408 166.5,-414 166.5,-414 166.5,-426 166.5,-426 166.5,-432 160.5,-438 154.5,-438"/>
<text text-anchor="middle" x="102.5" y="-417.5" font-family="Helvetica,sans-Serif" font-size="10.00">LookupEvaluatorConfig</text>
</g>
<!-- evaluator_label&#45;&gt;LookupEvaluatorConfig -->
<!-- evaluator_label&#45;&gt;LookupEvaluatorConfig -->
<g id="edge30" class="edge">
<title>evaluator_label&#45;&gt;LookupEvaluatorConfig</title>
<path fill="none" stroke="black" stroke-dasharray="5,2" d="M186.3,-480.47C173.9,-475.74 160.83,-469.9 149.5,-463 141.26,-457.99 133.13,-451.45 126,-445.03"/>
<polygon fill="black" stroke="black" points="128.39,-442.47 118.7,-438.19 123.6,-447.58 128.39,-442.47"/>
<text text-anchor="middle" x="163.5" y="-455.8" font-family="Helvetica,sans-Serif" font-size="9.00">one of</text>
</g>
<!-- DBEvaluatorConfig -->
<g id="node14" class="node">
<title>DBEvaluatorConfig</title>
<path fill="#dda0dd" stroke="black" d="M184.5,-371C184.5,-371 100.5,-371 100.5,-371 94.5,-371 88.5,-365 88.5,-359 88.5,-359 88.5,-347 88.5,-347 88.5,-341 94.5,-335 100.5,-335 100.5,-335 184.5,-335 184.5,-335 190.5,-335 196.5,-341 196.5,-347 196.5,-347 196.5,-359 196.5,-359 196.5,-365 190.5,-371 184.5,-371"/>
<text text-anchor="middle" x="142.5" y="-350.5" font-family="Helvetica,sans-Serif" font-size="10.00">DBEvaluatorConfig</text>
</g>
<!-- evaluator_label&#45;&gt;DBEvaluatorConfig -->
<g id="edge31" class="edge">
<title>evaluator_label&#45;&gt;DBEvaluatorConfig</title>
<path fill="none" stroke="black" stroke-dasharray="5,2" d="M218.63,-477.82C214.83,-473.13 210.87,-467.98 207.5,-463 190.09,-437.3 189.48,-428.61 173.5,-402 169.12,-394.71 164.19,-386.91 159.58,-379.77"/>
<polygon fill="black" stroke="black" points="162.36,-377.62 153.97,-371.16 156.49,-381.45 162.36,-377.62"/>
</g>
<!-- FPEvaluatorConfig -->
<g id="node15" class="node">
<title>FPEvaluatorConfig</title>
<path fill="#dda0dd" stroke="black" d="M214.5,-304C214.5,-304 132.5,-304 132.5,-304 126.5,-304 120.5,-298 120.5,-292 120.5,-292 120.5,-280 120.5,-280 120.5,-274 126.5,-268 132.5,-268 132.5,-268 214.5,-268 214.5,-268 220.5,-268 226.5,-274 226.5,-280 226.5,-280 226.5,-292 226.5,-292 226.5,-298 220.5,-304 214.5,-304"/>
<text text-anchor="middle" x="173.5" y="-283.5" font-family="Helvetica,sans-Serif" font-size="10.00">FPEvaluatorConfig</text>
</g>
<!-- evaluator_label&#45;&gt;FPEvaluatorConfig -->
<g id="edge32" class="edge">
<title>evaluator_label&#45;&gt;FPEvaluatorConfig</title>
<path fill="none" stroke="black" stroke-dasharray="5,2" d="M232.36,-477.61C229.94,-447.59 222.81,-384.5 203.5,-335 200.6,-327.57 196.53,-320.03 192.32,-313.2"/>
<polygon fill="black" stroke="black" points="194.97,-310.86 186.58,-304.39 189.1,-314.68 194.97,-310.86"/>
</g>
<!-- MWEvaluatorConfig -->
<g id="node16" class="node">
<title>MWEvaluatorConfig</title>
<path fill="#dda0dd" stroke="black" d="M244,-237C244,-237 155,-237 155,-237 149,-237 143,-231 143,-225 143,-225 143,-213 143,-213 143,-207 149,-201 155,-201 155,-201 244,-201 244,-201 250,-201 256,-207 256,-213 256,-213 256,-225 256,-225 256,-231 250,-237 244,-237"/>
<text text-anchor="middle" x="199.5" y="-216.5" font-family="Helvetica,sans-Serif" font-size="10.00">MWEvaluatorConfig</text>
</g>
<!-- evaluator_label&#45;&gt;MWEvaluatorConfig -->
<g id="edge33" class="edge">
<title>evaluator_label&#45;&gt;MWEvaluatorConfig</title>
<path fill="none" stroke="black" stroke-dasharray="5,2" d="M239,-477.85C243.28,-462.98 248.5,-440.79 248.5,-421 248.5,-421 248.5,-421 248.5,-285 248.5,-269.5 239.5,-255.35 229.22,-244.24"/>
<polygon fill="black" stroke="black" points="231.55,-241.62 221.99,-237.05 226.62,-246.58 231.55,-241.62"/>
</g>
<!-- ROCSEvaluatorConfig -->
<g id="node17" class="node">
<title>ROCSEvaluatorConfig</title>
<path fill="#d8bfd8" stroke="black" d="M274,-170C274,-170 177,-170 177,-170 171,-170 165,-164 165,-158 165,-158 165,-146 165,-146 165,-140 171,-134 177,-134 177,-134 274,-134 274,-134 280,-134 286,-140 286,-146 286,-146 286,-158 286,-158 286,-164 280,-170 274,-170"/>
<text text-anchor="middle" x="225.5" y="-149.5" font-family="Helvetica,sans-Serif" font-size="10.00">ROCSEvaluatorConfig</text>
</g>
<!-- evaluator_label&#45;&gt;ROCSEvaluatorConfig -->
<g id="edge34" class="edge">
<title>evaluator_label&#45;&gt;ROCSEvaluatorConfig</title>
<path fill="none" stroke="black" stroke-dasharray="5,2" d="M251.29,-477.91C263.86,-463.93 278.5,-442.95 278.5,-421 278.5,-421 278.5,-421 278.5,-218 278.5,-202.11 268.87,-187.96 257.83,-176.95"/>
<polygon fill="black" stroke="black" points="260.18,-174.37 250.45,-170.19 255.45,-179.52 260.18,-174.37"/>
</g>
<!-- FredEvaluatorConfig -->
<g id="node18" class="node">
<title>FredEvaluatorConfig</title>
<path fill="#d8bfd8" stroke="black" d="M304,-103C304,-103 213,-103 213,-103 207,-103 201,-97 201,-91 201,-91 201,-79 201,-79 201,-73 207,-67 213,-67 213,-67 304,-67 304,-67 310,-67 316,-73 316,-79 316,-79 316,-91 316,-91 316,-97 310,-103 304,-103"/>
<text text-anchor="middle" x="258.5" y="-82.5" font-family="Helvetica,sans-Serif" font-size="10.00">FredEvaluatorConfig</text>
</g>
<!-- evaluator_label&#45;&gt;FredEvaluatorConfig -->
<g id="edge35" class="edge">
<title>evaluator_label&#45;&gt;FredEvaluatorConfig</title>
<path fill="none" stroke="black" stroke-dasharray="5,2" d="M267.49,-477.86C287.33,-465.21 308.5,-445.88 308.5,-421 308.5,-421 308.5,-421 308.5,-151 308.5,-135.5 299.46,-121.43 289.06,-110.37"/>
<polygon fill="black" stroke="black" points="291.34,-107.7 281.74,-103.22 286.45,-112.71 291.34,-107.7"/>
</g>
<!-- MLClassifierConfig -->
<g id="node19" class="node">
<title>MLClassifierConfig</title>
<path fill="#d8bfd8" stroke="black" d="M363,-36C363,-36 234,-36 234,-36 228,-36 222,-30 222,-24 222,-24 222,-12 222,-12 222,-6 228,0 234,0 234,0 363,0 363,0 369,0 375,-6 375,-12 375,-12 375,-24 375,-24 375,-30 369,-36 363,-36"/>
<text text-anchor="middle" x="298.5" y="-15.5" font-family="Helvetica,sans-Serif" font-size="10.00">MLClassifierEvaluatorConfig</text>
</g>
<!-- evaluator_label&#45;&gt;MLClassifierConfig -->
<g id="edge36" class="edge">
<title>evaluator_label&#45;&gt;MLClassifierConfig</title>
<path fill="none" stroke="black" stroke-dasharray="5,2" d="M280.78,-481.58C308.65,-470.46 338.5,-451.44 338.5,-421 338.5,-421 338.5,-421 338.5,-84 338.5,-69.43 331.12,-55.38 322.7,-44.1"/>
<polygon fill="black" stroke="black" points="325.18,-41.6 316.16,-36.04 319.75,-46.01 325.18,-41.6"/>
</g>
<!-- LookupEvaluatorConfig&#45;&gt;DBEvaluatorConfig -->
<!-- DBEvaluatorConfig&#45;&gt;FPEvaluatorConfig -->
<!-- FPEvaluatorConfig&#45;&gt;MWEvaluatorConfig -->
<!-- MWEvaluatorConfig&#45;&gt;ROCSEvaluatorConfig -->
<!-- ROCSEvaluatorConfig&#45;&gt;FredEvaluatorConfig -->
<!-- FredEvaluatorConfig&#45;&gt;MLClassifierConfig -->
</g>
</svg>
