<?xml version="1.0" encoding="UTF-8" standalone="no"?>
<!DOCTYPE svg PUBLIC "-//W3C//DTD SVG 1.1//EN"
 "http://www.w3.org/Graphics/SVG/1.1/DTD/svg11.dtd">
<!-- Generated by graphviz version 2.43.0 (0)
 -->
<!-- Title: ThompsonSamplingModule Pages: 1 -->
<svg width="686pt" height="702pt"
 viewBox="0.00 0.00 686.00 702.00" xmlns="http://www.w3.org/2000/svg" xmlns:xlink="http://www.w3.org/1999/xlink">
<g id="graph0" class="graph" transform="scale(1 1) rotate(0) translate(4 698)">
<title>ThompsonSamplingModule</title>
<polygon fill="white" stroke="transparent" points="-4,4 -4,-698 682,-698 682,4 -4,4"/>
<g id="clust1" class="cluster">
<title>cluster_core</title>
<polygon fill="#fff8dc" stroke="#fff8dc" points="249,-595 249,-686 582,-686 582,-595 249,-595"/>
<text text-anchor="middle" x="415.5" y="-670.8" font-family="Times,serif" font-size="14.00">Core</text>
</g>
<g id="clust2" class="cluster">
<title>cluster_core_helpers</title>
</g>
<g id="clust3" class="cluster">
<title>cluster_strategies</title>
<polygon fill="#ffe4e1" stroke="#ffe4e1" points="8,-152 8,-587 230,-587 230,-152 8,-152"/>
<text text-anchor="middle" x="119" y="-571.8" font-family="Times,serif" font-size="14.00">Selection Strategies</text>
</g>
<g id="clust4" class="cluster">
<title>cluster_warmup</title>
<polygon fill="#e0ffff" stroke="#e0ffff" points="238,-296 238,-587 404,-587 404,-296 238,-296"/>
<text text-anchor="middle" x="321" y="-571.8" font-family="Times,serif" font-size="14.00">Warmup Strategies</text>
</g>
<g id="clust5" class="cluster">
<title>cluster_evaluators</title>
<polygon fill="#e6e6fa" stroke="#e6e6fa" points="412,-8 412,-587 670,-587 670,-8 412,-8"/>
<text text-anchor="middle" x="541" y="-571.8" font-family="Times,serif" font-size="14.00">Evaluators</text>
</g>
<!-- ThompsonSampler -->
<g id="node1" class="node">
<title>ThompsonSampler</title>
<path fill="#ffd700" stroke="black" d="M353,-647C353,-647 269,-647 269,-647 263,-647 257,-641 257,-635 257,-635 257,-623 257,-623 257,-617 263,-611 269,-611 269,-611 353,-611 353,-611 359,-611 365,-617 365,-623 365,-623 365,-635 365,-635 365,-641 359,-647 353,-647"/>
<text text-anchor="middle" x="311" y="-626.5" font-family="Helvetica,sans-Serif" font-size="10.00">ThompsonSampler</text>
</g>
<!-- BaseStrategy -->
<g id="node4" class="node">
<title>BaseStrategy</title>
<path fill="white" stroke="black" d="M190,-556C190,-556 80,-556 80,-556 74,-556 68,-550 68,-544 68,-544 68,-532 68,-532 68,-526 74,-520 80,-520 80,-520 190,-520 190,-520 196,-520 202,-526 202,-532 202,-532 202,-544 202,-544 202,-550 196,-556 190,-556"/>
<text text-anchor="middle" x="135" y="-535.5" font-family="Helvetica,sans-Serif" font-size="10.00">SelectionStrategy (ABC)</text>
</g>
<!-- ThompsonSampler&#45;&gt;BaseStrategy -->
<g id="edge31" class="edge">
<title>ThompsonSampler&#45;&gt;BaseStrategy</title>
<path fill="none" stroke="black" stroke-width="2" d="M277.07,-610.84C248.82,-596.56 208.45,-576.14 177.95,-560.72"/>
<polygon fill="black" stroke="black" stroke-width="2" points="179.33,-557.5 168.83,-556.11 176.17,-563.74 179.33,-557.5"/>
</g>
<!-- BaseWarmup -->
<g id="node10" class="node">
<title>BaseWarmup</title>
<path fill="white" stroke="black" d="M363.5,-556C363.5,-556 258.5,-556 258.5,-556 252.5,-556 246.5,-550 246.5,-544 246.5,-544 246.5,-532 246.5,-532 246.5,-526 252.5,-520 258.5,-520 258.5,-520 363.5,-520 363.5,-520 369.5,-520 375.5,-526 375.5,-532 375.5,-532 375.5,-544 375.5,-544 375.5,-550 369.5,-556 363.5,-556"/>
<text text-anchor="middle" x="311" y="-535.5" font-family="Helvetica,sans-Serif" font-size="10.00">WarmupStrategy (ABC)</text>
</g>
<!-- ThompsonSampler&#45;&gt;BaseWarmup -->
<g id="edge32" class="edge">
<title>ThompsonSampler&#45;&gt;BaseWarmup</title>
<path fill="none" stroke="black" stroke-width="2" d="M311,-610.84C311,-598.28 311,-580.98 311,-566.5"/>
<polygon fill="black" stroke="black" stroke-width="2" points="314.5,-566.11 311,-556.11 307.5,-566.11 314.5,-566.11"/>
</g>
<!-- BaseEvaluator -->
<g id="node14" class="node">
<title>BaseEvaluator</title>
<path fill="white" stroke="black" d="M503,-556C503,-556 433,-556 433,-556 427,-556 421,-550 421,-544 421,-544 421,-532 421,-532 421,-526 427,-520 433,-520 433,-520 503,-520 503,-520 509,-520 515,-526 515,-532 515,-532 515,-544 515,-544 515,-550 509,-556 503,-556"/>
<text text-anchor="middle" x="468" y="-535.5" font-family="Helvetica,sans-Serif" font-size="10.00">Evaluator (ABC)</text>
</g>
<!-- ThompsonSampler&#45;&gt;BaseEvaluator -->
<g id="edge33" class="edge">
<title>ThompsonSampler&#45;&gt;BaseEvaluator</title>
<path fill="none" stroke="black" stroke-width="2" d="M339.77,-610.94C350.27,-605.25 362.42,-599.28 374,-595 388.97,-589.47 394.66,-594 409,-587 421.55,-580.88 433.8,-571.63 443.85,-562.87"/>
<polygon fill="black" stroke="black" stroke-width="2" points="446.35,-565.34 451.41,-556.03 441.65,-560.15 446.35,-565.34"/>
</g>
<!-- Reagent -->
<g id="node2" class="node">
<title>Reagent</title>
<path fill="#fffacd" stroke="black" d="M553.5,-647C553.5,-647 520.5,-647 520.5,-647 514.5,-647 508.5,-641 508.5,-635 508.5,-635 508.5,-623 508.5,-623 508.5,-617 514.5,-611 520.5,-611 520.5,-611 553.5,-611 553.5,-611 559.5,-611 565.5,-617 565.5,-623 565.5,-623 565.5,-635 565.5,-635 565.5,-641 559.5,-647 553.5,-647"/>
<text text-anchor="middle" x="537" y="-626.5" font-family="Helvetica,sans-Serif" font-size="10.00">Reagent</text>
</g>
<!-- ParallelEvaluator -->
<g id="node3" class="node">
<title>ParallelEvaluator</title>
<path fill="#fffacd" stroke="black" d="M474.5,-647C474.5,-647 399.5,-647 399.5,-647 393.5,-647 387.5,-641 387.5,-635 387.5,-635 387.5,-623 387.5,-623 387.5,-617 393.5,-611 399.5,-611 399.5,-611 474.5,-611 474.5,-611 480.5,-611 486.5,-617 486.5,-623 486.5,-623 486.5,-635 486.5,-635 486.5,-641 480.5,-647 474.5,-647"/>
<text text-anchor="middle" x="437" y="-626.5" font-family="Helvetica,sans-Serif" font-size="10.00">ParallelEvaluator</text>
</g>
<!-- Greedy -->
<g id="node5" class="node">
<title>Greedy</title>
<path fill="#ffb6c1" stroke="black" d="M113.5,-484C113.5,-484 40.5,-484 40.5,-484 34.5,-484 28.5,-478 28.5,-472 28.5,-472 28.5,-460 28.5,-460 28.5,-454 34.5,-448 40.5,-448 40.5,-448 113.5,-448 113.5,-448 119.5,-448 125.5,-454 125.5,-460 125.5,-460 125.5,-472 125.5,-472 125.5,-478 119.5,-484 113.5,-484"/>
<text text-anchor="middle" x="77" y="-463.5" font-family="Helvetica,sans-Serif" font-size="10.00">GreedySelection</text>
</g>
<!-- BaseStrategy&#45;&gt;Greedy -->
<!-- BaseStrategy&#45;&gt;Greedy -->
<g id="edge16" class="edge">
<title>BaseStrategy&#45;&gt;Greedy</title>
<path fill="none" stroke="black" stroke-dasharray="5,2" d="M127.89,-519.7C121.94,-511.22 113.59,-500.86 105.28,-491.58"/>
<polygon fill="black" stroke="black" points="107.73,-489.08 98.38,-484.1 102.59,-493.83 107.73,-489.08"/>
</g>
<!-- RouletteWheel -->
<g id="node6" class="node">
<title>RouletteWheel</title>
<path fill="#ffb6c1" stroke="black" d="M138,-412C138,-412 28,-412 28,-412 22,-412 16,-406 16,-400 16,-400 16,-388 16,-388 16,-382 22,-376 28,-376 28,-376 138,-376 138,-376 144,-376 150,-382 150,-388 150,-388 150,-400 150,-400 150,-406 144,-412 138,-412"/>
<text text-anchor="middle" x="83" y="-391.5" font-family="Helvetica,sans-Serif" font-size="10.00">RouletteWheelSelection</text>
</g>
<!-- BaseStrategy&#45;&gt;RouletteWheel -->
<g id="edge17" class="edge">
<title>BaseStrategy&#45;&gt;RouletteWheel</title>
<path fill="none" stroke="black" stroke-dasharray="5,2" d="M139.39,-519.83C143.23,-501.32 146.81,-471.37 137,-448 132.36,-436.95 124.17,-427.04 115.54,-418.86"/>
<polygon fill="black" stroke="black" points="117.74,-416.14 107.93,-412.14 113.11,-421.38 117.74,-416.14"/>
</g>
<!-- UCB -->
<g id="node7" class="node">
<title>UCB</title>
<path fill="#ffb6c1" stroke="black" d="M112.5,-340C112.5,-340 53.5,-340 53.5,-340 47.5,-340 41.5,-334 41.5,-328 41.5,-328 41.5,-316 41.5,-316 41.5,-310 47.5,-304 53.5,-304 53.5,-304 112.5,-304 112.5,-304 118.5,-304 124.5,-310 124.5,-316 124.5,-316 124.5,-328 124.5,-328 124.5,-334 118.5,-340 112.5,-340"/>
<text text-anchor="middle" x="83" y="-319.5" font-family="Helvetica,sans-Serif" font-size="10.00">UCBSelection</text>
</g>
<!-- BaseStrategy&#45;&gt;UCB -->
<g id="edge18" class="edge">
<title>BaseStrategy&#45;&gt;UCB</title>
<path fill="none" stroke="black" stroke-dasharray="5,2" d="M144.31,-519.89C159.66,-489.2 186.17,-423.54 161,-376 154.4,-363.54 143.42,-353.47 131.75,-345.59"/>
<polygon fill="black" stroke="black" points="133.52,-342.56 123.18,-340.23 129.8,-348.5 133.52,-342.56"/>
</g>
<!-- EpsilonGreedy -->
<g id="node8" class="node">
<title>EpsilonGreedy</title>
<path fill="#ffb6c1" stroke="black" d="M137,-268C137,-268 29,-268 29,-268 23,-268 17,-262 17,-256 17,-256 17,-244 17,-244 17,-238 23,-232 29,-232 29,-232 137,-232 137,-232 143,-232 149,-238 149,-244 149,-244 149,-256 149,-256 149,-262 143,-268 137,-268"/>
<text text-anchor="middle" x="83" y="-247.5" font-family="Helvetica,sans-Serif" font-size="10.00">EpsilonGreedySelection</text>
</g>
<!-- BaseStrategy&#45;&gt;EpsilonGreedy -->
<g id="edge19" class="edge">
<title>BaseStrategy&#45;&gt;EpsilonGreedy</title>
<path fill="none" stroke="black" stroke-dasharray="5,2" d="M150.11,-519.68C157.64,-509.91 165.98,-497.07 170,-484 184.13,-438.12 180.83,-422.99 171,-376 163.05,-338.01 159.17,-327.14 136,-296 130.23,-288.25 122.89,-280.94 115.52,-274.57"/>
<polygon fill="black" stroke="black" points="117.53,-271.69 107.59,-268.03 113.08,-277.09 117.53,-271.69"/>
</g>
<!-- BayesUCB -->
<g id="node9" class="node">
<title>BayesUCB</title>
<path fill="#ffb6c1" stroke="black" d="M127.5,-196C127.5,-196 38.5,-196 38.5,-196 32.5,-196 26.5,-190 26.5,-184 26.5,-184 26.5,-172 26.5,-172 26.5,-166 32.5,-160 38.5,-160 38.5,-160 127.5,-160 127.5,-160 133.5,-160 139.5,-166 139.5,-172 139.5,-172 139.5,-184 139.5,-184 139.5,-190 133.5,-196 127.5,-196"/>
<text text-anchor="middle" x="83" y="-175.5" font-family="Helvetica,sans-Serif" font-size="10.00">BayesUCBSelection</text>
</g>
<!-- BaseStrategy&#45;&gt;BayesUCB -->
<g id="edge20" class="edge">
<title>BaseStrategy&#45;&gt;BayesUCB</title>
<path fill="none" stroke="black" stroke-dasharray="5,2" d="M155.38,-519.53C164.81,-510.09 175.01,-497.6 180,-484 218.73,-378.54 219.01,-327.61 160,-232 152.46,-219.78 140.92,-209.67 129.06,-201.68"/>
<polygon fill="black" stroke="black" points="130.74,-198.6 120.42,-196.23 127.01,-204.52 130.74,-198.6"/>
</g>
<!-- Greedy&#45;&gt;RouletteWheel -->
<!-- RouletteWheel&#45;&gt;UCB -->
<!-- UCB&#45;&gt;EpsilonGreedy -->
<!-- EpsilonGreedy&#45;&gt;BayesUCB -->
<!-- Balanced -->
<g id="node11" class="node">
<title>Balanced</title>
<path fill="#00ced1" stroke="black" d="M336,-484C336,-484 258,-484 258,-484 252,-484 246,-478 246,-472 246,-472 246,-460 246,-460 246,-454 252,-448 258,-448 258,-448 336,-448 336,-448 342,-448 348,-454 348,-460 348,-460 348,-472 348,-472 348,-478 342,-484 336,-484"/>
<text text-anchor="middle" x="297" y="-463.5" font-family="Helvetica,sans-Serif" font-size="10.00">BalancedWarmup</text>
</g>
<!-- BaseWarmup&#45;&gt;Balanced -->
<!-- BaseWarmup&#45;&gt;Balanced -->
<g id="edge21" class="edge">
<title>BaseWarmup&#45;&gt;Balanced</title>
<path fill="none" stroke="black" stroke-dasharray="5,2" d="M314.77,-519.7C314.19,-511.9 312.59,-502.51 310.41,-493.83"/>
<polygon fill="black" stroke="black" points="313.75,-492.75 307.63,-484.1 307.02,-494.68 313.75,-492.75"/>
</g>
<!-- Standard -->
<g id="node12" class="node">
<title>Standard</title>
<path fill="#afeeee" stroke="black" d="M335.5,-412C335.5,-412 258.5,-412 258.5,-412 252.5,-412 246.5,-406 246.5,-400 246.5,-400 246.5,-388 246.5,-388 246.5,-382 252.5,-376 258.5,-376 258.5,-376 335.5,-376 335.5,-376 341.5,-376 347.5,-382 347.5,-388 347.5,-388 347.5,-400 347.5,-400 347.5,-406 341.5,-412 335.5,-412"/>
<text text-anchor="middle" x="297" y="-391.5" font-family="Helvetica,sans-Serif" font-size="10.00">StandardWarmup</text>
</g>
<!-- BaseWarmup&#45;&gt;Standard -->
<g id="edge22" class="edge">
<title>BaseWarmup&#45;&gt;Standard</title>
<path fill="none" stroke="black" stroke-dasharray="5,2" d="M332.71,-519.79C342.76,-510.41 353.64,-497.9 359,-484 364.76,-469.07 365.7,-462.53 359,-448 353.68,-436.44 344.45,-426.47 334.72,-418.4"/>
<polygon fill="black" stroke="black" points="336.56,-415.39 326.5,-412.06 332.29,-420.94 336.56,-415.39"/>
</g>
<!-- Enhanced -->
<g id="node13" class="node">
<title>Enhanced</title>
<path fill="#afeeee" stroke="black" d="M338,-340C338,-340 258,-340 258,-340 252,-340 246,-334 246,-328 246,-328 246,-316 246,-316 246,-310 252,-304 258,-304 258,-304 338,-304 338,-304 344,-304 350,-310 350,-316 350,-316 350,-328 350,-328 350,-334 344,-340 338,-340"/>
<text text-anchor="middle" x="298" y="-319.5" font-family="Helvetica,sans-Serif" font-size="10.00">EnhancedWarmup</text>
</g>
<!-- BaseWarmup&#45;&gt;Enhanced -->
<g id="edge23" class="edge">
<title>BaseWarmup&#45;&gt;Enhanced</title>
<path fill="none" stroke="black" stroke-dasharray="5,2" d="M337.12,-519.82C348.58,-510.69 360.81,-498.39 367,-484 373.33,-469.3 367.88,-463.98 367,-448 365.22,-415.85 373.96,-404.51 359,-376 352.98,-364.53 343.37,-354.44 333.54,-346.23"/>
<polygon fill="black" stroke="black" points="335.71,-343.47 325.68,-340.05 331.38,-348.98 335.71,-343.47"/>
</g>
<!-- Balanced&#45;&gt;Standard -->
<!-- Standard&#45;&gt;Enhanced -->
<!-- Lookup -->
<g id="node15" class="node">
<title>Lookup</title>
<path fill="#dda0dd" stroke="black" d="M506,-484C506,-484 432,-484 432,-484 426,-484 420,-478 420,-472 420,-472 420,-460 420,-460 420,-454 426,-448 432,-448 432,-448 506,-448 506,-448 512,-448 518,-454 518,-460 518,-460 518,-472 518,-472 518,-478 512,-484 506,-484"/>
<text text-anchor="middle" x="469" y="-463.5" font-family="Helvetica,sans-Serif" font-size="10.00">LookupEvaluator</text>
</g>
<!-- BaseEvaluator&#45;&gt;Lookup -->
<!-- BaseEvaluator&#45;&gt;Lookup -->
<g id="edge24" class="edge">
<title>BaseEvaluator&#45;&gt;Lookup</title>
<path fill="none" stroke="black" stroke-dasharray="5,2" d="M475.48,-519.7C476.56,-511.98 476.97,-502.71 476.67,-494.11"/>
<polygon fill="black" stroke="black" points="480.16,-493.83 475.96,-484.1 473.18,-494.33 480.16,-493.83"/>
</g>
<!-- DB -->
<g id="node16" class="node">
<title>DB</title>
<path fill="#dda0dd" stroke="black" d="M495.5,-412C495.5,-412 442.5,-412 442.5,-412 436.5,-412 430.5,-406 430.5,-400 430.5,-400 430.5,-388 430.5,-388 430.5,-382 436.5,-376 442.5,-376 442.5,-376 495.5,-376 495.5,-376 501.5,-376 507.5,-382 507.5,-388 507.5,-388 507.5,-400 507.5,-400 507.5,-406 501.5,-412 495.5,-412"/>
<text text-anchor="middle" x="469" y="-391.5" font-family="Helvetica,sans-Serif" font-size="10.00">DBEvaluator</text>
</g>
<!-- BaseEvaluator&#45;&gt;DB -->
<g id="edge25" class="edge">
<title>BaseEvaluator&#45;&gt;DB</title>
<path fill="none" stroke="black" stroke-dasharray="5,2" d="M497.04,-519.84C509.32,-510.87 522.31,-498.68 529,-484 535.64,-469.44 535.58,-462.59 529,-448 523.82,-436.52 514.79,-426.52 505.28,-418.4"/>
<polygon fill="black" stroke="black" points="507.27,-415.51 497.26,-412.03 502.91,-420.99 507.27,-415.51"/>
</g>
<!-- FP -->
<g id="node17" class="node">
<title>FP</title>
<path fill="#dda0dd" stroke="black" d="M495.5,-340C495.5,-340 444.5,-340 444.5,-340 438.5,-340 432.5,-334 432.5,-328 432.5,-328 432.5,-316 432.5,-316 432.5,-310 438.5,-304 444.5,-304 444.5,-304 495.5,-304 495.5,-304 501.5,-304 507.5,-310 507.5,-316 507.5,-316 507.5,-328 507.5,-328 507.5,-334 501.5,-340 495.5,-340"/>
<text text-anchor="middle" x="470" y="-319.5" font-family="Helvetica,sans-Serif" font-size="10.00">FPEvaluator</text>
</g>
<!-- BaseEvaluator&#45;&gt;FP -->
<g id="edge26" class="edge">
<title>BaseEvaluator&#45;&gt;FP</title>
<path fill="none" stroke="black" stroke-dasharray="5,2" d="M501.84,-519.96C515.38,-511.22 529.52,-499.17 537,-484 558.51,-440.35 542.14,-418.81 519,-376 513.43,-365.7 505.41,-355.86 497.45,-347.52"/>
<polygon fill="black" stroke="black" points="499.79,-344.91 490.25,-340.31 494.84,-349.85 499.79,-344.91"/>
</g>
<!-- MW -->
<g id="node18" class="node">
<title>MW</title>
<path fill="#dda0dd" stroke="black" d="M505,-268C505,-268 447,-268 447,-268 441,-268 435,-262 435,-256 435,-256 435,-244 435,-244 435,-238 441,-232 447,-232 447,-232 505,-232 505,-232 511,-232 517,-238 517,-244 517,-244 517,-256 517,-256 517,-262 511,-268 505,-268"/>
<text text-anchor="middle" x="476" y="-247.5" font-family="Helvetica,sans-Serif" font-size="10.00">MWEvaluator</text>
</g>
<!-- BaseEvaluator&#45;&gt;MW -->
<g id="edge27" class="edge">
<title>BaseEvaluator&#45;&gt;MW</title>
<path fill="none" stroke="black" stroke-dasharray="5,2" d="M509.18,-520C524.21,-511.54 539.57,-499.71 548,-484 570.29,-442.49 573.15,-401.14 519,-296 515.24,-288.71 509.93,-281.78 504.32,-275.64"/>
<polygon fill="black" stroke="black" points="506.64,-273.01 497.14,-268.33 501.65,-277.92 506.64,-273.01"/>
</g>
<!-- ROCS -->
<g id="node19" class="node">
<title>ROCS</title>
<path fill="#d8bfd8" stroke="black" d="M512,-196C512,-196 446,-196 446,-196 440,-196 434,-190 434,-184 434,-184 434,-172 434,-172 434,-166 440,-160 446,-160 446,-160 512,-160 512,-160 518,-160 524,-166 524,-172 524,-172 524,-184 524,-184 524,-190 518,-196 512,-196"/>
<text text-anchor="middle" x="479" y="-175.5" font-family="Helvetica,sans-Serif" font-size="10.00">ROCSEvaluator</text>
</g>
<!-- BaseEvaluator&#45;&gt;ROCS -->
<g id="edge28" class="edge">
<title>BaseEvaluator&#45;&gt;ROCS</title>
<path fill="none" stroke="black" stroke-dasharray="5,2" d="M515.19,-520.87C532.22,-512.59 549.76,-500.64 560,-484 576.8,-456.71 563.11,-444.04 564,-412 566.26,-330.45 566.8,-303.77 528,-232 522.43,-221.7 514.41,-211.86 506.45,-203.52"/>
<polygon fill="black" stroke="black" points="508.79,-200.91 499.25,-196.31 503.84,-205.85 508.79,-200.91"/>
</g>
<!-- FRED -->
<g id="node20" class="node">
<title>FRED</title>
<path fill="#d8bfd8" stroke="black" d="M510,-124C510,-124 450,-124 450,-124 444,-124 438,-118 438,-112 438,-112 438,-100 438,-100 438,-94 444,-88 450,-88 450,-88 510,-88 510,-88 516,-88 522,-94 522,-100 522,-100 522,-112 522,-112 522,-118 516,-124 510,-124"/>
<text text-anchor="middle" x="480" y="-103.5" font-family="Helvetica,sans-Serif" font-size="10.00">FredEvaluator</text>
</g>
<!-- BaseEvaluator&#45;&gt;FRED -->
<g id="edge29" class="edge">
<title>BaseEvaluator&#45;&gt;FRED</title>
<path fill="none" stroke="black" stroke-dasharray="5,2" d="M515.1,-524.64C535.72,-516.63 557.93,-503.87 570,-484 647.02,-357.18 612.37,-278.6 535,-152 530.09,-143.96 523.21,-136.71 515.98,-130.5"/>
<polygon fill="black" stroke="black" points="518.06,-127.69 508.07,-124.17 513.69,-133.15 518.06,-127.69"/>
</g>
<!-- ML -->
<g id="node21" class="node">
<title>ML</title>
<path fill="#d8bfd8" stroke="black" d="M530,-52C530,-52 432,-52 432,-52 426,-52 420,-46 420,-40 420,-40 420,-28 420,-28 420,-22 426,-16 432,-16 432,-16 530,-16 530,-16 536,-16 542,-22 542,-28 542,-28 542,-40 542,-40 542,-46 536,-52 530,-52"/>
<text text-anchor="middle" x="481" y="-31.5" font-family="Helvetica,sans-Serif" font-size="10.00">MLClassifierEvaluator</text>
</g>
<!-- BaseEvaluator&#45;&gt;ML -->
<g id="edge30" class="edge">
<title>BaseEvaluator&#45;&gt;ML</title>
<path fill="none" stroke="black" stroke-dasharray="5,2" d="M515.23,-524.87C538.84,-516.72 566.29,-503.75 585,-484 629.95,-436.53 614.09,-405.37 615,-340 615.27,-320.45 618.09,-315.31 615,-296 606.08,-240.23 534.61,-90.42 533,-88 526.14,-77.72 517.12,-67.7 508.52,-59.19"/>
<polygon fill="black" stroke="black" points="510.79,-56.52 501.14,-52.14 505.95,-61.58 510.79,-56.52"/>
</g>
<!-- Lookup&#45;&gt;DB -->
<!-- DB&#45;&gt;FP -->
<!-- FP&#45;&gt;MW -->
<!-- MW&#45;&gt;ROCS -->
<!-- ROCS&#45;&gt;FRED -->
<!-- FRED&#45;&gt;ML -->
</g>
</svg>
