<?xml version="1.0" encoding="UTF-8" standalone="no"?>
<!DOCTYPE svg PUBLIC "-//W3C//DTD SVG 1.1//EN"
 "http://www.w3.org/Graphics/SVG/1.1/DTD/svg11.dtd">
<!-- Generated by graphviz version 2.43.0 (0)
 -->
<!-- Title: Workflow Pages: 1 -->
<svg width="246pt" height="174pt"
 viewBox="0.00 0.00 246.00 174.00" xmlns="http://www.w3.org/2000/svg" xmlns:xlink="http://www.w3.org/1999/xlink">
<g id="graph0" class="graph" transform="scale(1 1) rotate(0) translate(4 170)">
<title>Workflow</title>
<polygon fill="white" stroke="transparent" points="-4,4 -4,-170 242,-170 242,4 -4,4"/>
<!-- TSRun -->
<g id="node1" class="node">
<title>TSRun</title>
<path fill="#add8e6" stroke="black" d="M184,-166C184,-166 53,-166 53,-166 47,-166 41,-160 41,-154 41,-154 41,-142 41,-142 41,-136 47,-130 53,-130 53,-130 184,-130 184,-130 190,-130 196,-136 196,-142 196,-142 196,-154 196,-154 196,-160 190,-166 184,-166"/>
<text text-anchor="middle" x="118.5" y="-145.5" font-family="Helvetica,sans-Serif" font-size="10.00">Thompson Sampling Results</text>
</g>
<!-- Analysis -->
<g id="node2" class="node">
<title>Analysis</title>
<path fill="#ffd700" stroke="black" d="M90.5,-101C90.5,-101 22.5,-101 22.5,-101 16.5,-101 10.5,-95 10.5,-89 10.5,-89 10.5,-77 10.5,-77 10.5,-71 16.5,-65 22.5,-65 22.5,-65 90.5,-65 90.5,-65 96.5,-65 102.5,-71 102.5,-77 102.5,-77 102.5,-89 102.5,-89 102.5,-95 96.5,-101 90.5,-101"/>
<text text-anchor="middle" x="56.5" y="-86" font-family="Helvetica,sans-Serif" font-size="10.00">LibraryAnalysis</text>
<text text-anchor="middle" x="56.5" y="-75" font-family="Helvetica,sans-Serif" font-size="10.00">(find top BBs)</text>
</g>
<!-- TSRun&#45;&gt;Analysis -->
<g id="edge1" class="edge">
<title>TSRun&#45;&gt;Analysis</title>
<path fill="none" stroke="black" d="M101.56,-129.78C95.13,-123.26 87.69,-115.69 80.72,-108.61"/>
<polygon fill="black" stroke="black" points="82.93,-105.87 73.42,-101.19 77.94,-110.78 82.93,-105.87"/>
</g>
<!-- Benchmark -->
<g id="node4" class="node">
<title>Benchmark</title>
<path fill="#e6e6fa" stroke="black" d="M226,-101C226,-101 137,-101 137,-101 131,-101 125,-95 125,-89 125,-89 125,-77 125,-77 125,-71 131,-65 137,-65 137,-65 226,-65 226,-65 232,-65 238,-71 238,-77 238,-77 238,-89 238,-89 238,-95 232,-101 226,-101"/>
<text text-anchor="middle" x="181.5" y="-86" font-family="Helvetica,sans-Serif" font-size="10.00">TS_Benchmarks</text>
<text text-anchor="middle" x="181.5" y="-75" font-family="Helvetica,sans-Serif" font-size="10.00">(compare methods)</text>
</g>
<!-- TSRun&#45;&gt;Benchmark -->
<g id="edge3" class="edge">
<title>TSRun&#45;&gt;Benchmark</title>
<path fill="none" stroke="black" d="M135.72,-129.78C142.24,-123.26 149.81,-115.69 156.89,-108.61"/>
<polygon fill="black" stroke="black" points="159.71,-110.74 164.31,-101.19 154.76,-105.79 159.71,-110.74"/>
</g>
<!-- Viz -->
<g id="node3" class="node">
<title>Viz</title>
<path fill="#90ee90" stroke="black" d="M101,-36C101,-36 12,-36 12,-36 6,-36 0,-30 0,-24 0,-24 0,-12 0,-12 0,-6 6,0 12,0 12,0 101,0 101,0 107,0 113,-6 113,-12 113,-12 113,-24 113,-24 113,-30 107,-36 101,-36"/>
<text text-anchor="middle" x="56.5" y="-21" font-family="Helvetica,sans-Serif" font-size="10.00">LibraryVisualization</text>
<text text-anchor="middle" x="56.5" y="-10" font-family="Helvetica,sans-Serif" font-size="10.00">(create plots)</text>
</g>
<!-- Analysis&#45;&gt;Viz -->
<g id="edge2" class="edge">
<title>Analysis&#45;&gt;Viz</title>
<path fill="none" stroke="black" d="M56.5,-64.78C56.5,-59.09 56.5,-52.61 56.5,-46.34"/>
<polygon fill="black" stroke="black" points="60,-46.19 56.5,-36.19 53,-46.19 60,-46.19"/>
</g>
</g>
</svg>
