<?xml version="1.0" encoding="UTF-8" standalone="no"?>
<!DOCTYPE svg PUBLIC "-//W3C//DTD SVG 1.1//EN"
 "http://www.w3.org/Graphics/SVG/1.1/DTD/svg11.dtd">
<!-- Generated by graphviz version 2.43.0 (0)
 -->
<!-- Title: StrategySelection Pages: 1 -->
<svg width="306pt" height="334pt"
 viewBox="0.00 0.00 305.50 334.00" xmlns="http://www.w3.org/2000/svg" xmlns:xlink="http://www.w3.org/1999/xlink">
<g id="graph0" class="graph" transform="scale(1 1) rotate(0) translate(4 330)">
<title>StrategySelection</title>
<polygon fill="white" stroke="transparent" points="-4,4 -4,-330 301.5,-330 301.5,4 -4,4"/>
<!-- SelectReagent -->
<g id="node1" class="node">
<title>SelectReagent</title>
<path fill="#fffacd" stroke="black" d="M234.5,-326C234.5,-326 168.5,-326 168.5,-326 162.5,-326 156.5,-320 156.5,-314 156.5,-314 156.5,-302 156.5,-302 156.5,-296 162.5,-290 168.5,-290 168.5,-290 234.5,-290 234.5,-290 240.5,-290 246.5,-296 246.5,-302 246.5,-302 246.5,-314 246.5,-314 246.5,-320 240.5,-326 234.5,-326"/>
<text text-anchor="middle" x="201.5" y="-305.5" font-family="Helvetica,sans-Serif" font-size="10.00">Select Reagent</text>
</g>
<!-- Greedy -->
<g id="node2" class="node">
<title>Greedy</title>
<path fill="#90ee90" stroke="black" d="M137,-268C137,-268 24,-268 24,-268 18,-268 12,-262 12,-256 12,-256 12,-244 12,-244 12,-238 18,-232 24,-232 24,-232 137,-232 137,-232 143,-232 149,-238 149,-244 149,-244 149,-256 149,-256 149,-262 143,-268 137,-268"/>
<text text-anchor="middle" x="80.5" y="-247.5" font-family="Helvetica,sans-Serif" font-size="10.00">Greedy (argmax/argmin)</text>
</g>
<!-- SelectReagent&#45;&gt;Greedy -->
<g id="edge1" class="edge">
<title>SelectReagent&#45;&gt;Greedy</title>
<path fill="none" stroke="black" d="M164.54,-289.89C152.58,-284.36 139.16,-278.15 126.62,-272.34"/>
<polygon fill="black" stroke="black" points="127.78,-269.03 117.24,-268 124.84,-275.38 127.78,-269.03"/>
</g>
<!-- RouletteWheel -->
<g id="node3" class="node">
<title>RouletteWheel</title>
<path fill="#add8e6" stroke="black" d="M167,-210C167,-210 12,-210 12,-210 6,-210 0,-204 0,-198 0,-198 0,-186 0,-186 0,-180 6,-174 12,-174 12,-174 167,-174 167,-174 173,-174 179,-180 179,-186 179,-186 179,-198 179,-198 179,-204 173,-210 167,-210"/>
<text text-anchor="middle" x="89.5" y="-189.5" font-family="Helvetica,sans-Serif" font-size="10.00">RouletteWheel (Thermal Cycling)</text>
</g>
<!-- SelectReagent&#45;&gt;RouletteWheel -->
<g id="edge6" class="edge">
<title>SelectReagent&#45;&gt;RouletteWheel</title>
<path fill="none" stroke="black" d="M194,-289.88C186.2,-273.53 172.71,-248.92 155.5,-232 149.29,-225.9 141.95,-220.36 134.46,-215.51"/>
<polygon fill="black" stroke="black" points="136.01,-212.36 125.65,-210.13 132.36,-218.33 136.01,-212.36"/>
</g>
<!-- UCB -->
<g id="node4" class="node">
<title>UCB</title>
<path fill="#ffb6c1" stroke="black" d="M197,-152C197,-152 80,-152 80,-152 74,-152 68,-146 68,-140 68,-140 68,-128 68,-128 68,-122 74,-116 80,-116 80,-116 197,-116 197,-116 203,-116 209,-122 209,-128 209,-128 209,-140 209,-140 209,-146 203,-152 197,-152"/>
<text text-anchor="middle" x="138.5" y="-131.5" font-family="Helvetica,sans-Serif" font-size="10.00">UCB (Confidence Bounds)</text>
</g>
<!-- SelectReagent&#45;&gt;UCB -->
<g id="edge7" class="edge">
<title>SelectReagent&#45;&gt;UCB</title>
<path fill="none" stroke="black" d="M203.31,-289.84C205.29,-263.28 205.86,-211.37 185.5,-174 182.57,-168.63 178.58,-163.7 174.15,-159.29"/>
<polygon fill="black" stroke="black" points="176.19,-156.41 166.4,-152.36 171.52,-161.63 176.19,-156.41"/>
</g>
<!-- BayesUCB -->
<g id="node5" class="node">
<title>BayesUCB</title>
<path fill="#e6e6fa" stroke="black" d="M227.5,-94C227.5,-94 89.5,-94 89.5,-94 83.5,-94 77.5,-88 77.5,-82 77.5,-82 77.5,-70 77.5,-70 77.5,-64 83.5,-58 89.5,-58 89.5,-58 227.5,-58 227.5,-58 233.5,-58 239.5,-64 239.5,-70 239.5,-70 239.5,-82 239.5,-82 239.5,-88 233.5,-94 227.5,-94"/>
<text text-anchor="middle" x="158.5" y="-73.5" font-family="Helvetica,sans-Serif" font-size="10.00">BayesUCB (Student&#45;t + CATS)</text>
</g>
<!-- SelectReagent&#45;&gt;BayesUCB -->
<g id="edge8" class="edge">
<title>SelectReagent&#45;&gt;BayesUCB</title>
<path fill="none" stroke="black" d="M208.64,-289.92C222.07,-254.93 247.15,-173.54 216.5,-116 213.32,-110.03 208.77,-104.81 203.6,-100.29"/>
<polygon fill="black" stroke="black" points="205.73,-97.51 195.68,-94.18 201.46,-103.06 205.73,-97.51"/>
</g>
<!-- EpsilonGreedy -->
<g id="node6" class="node">
<title>EpsilonGreedy</title>
<path fill="#fffacd" stroke="black" d="M285.5,-36C285.5,-36 133.5,-36 133.5,-36 127.5,-36 121.5,-30 121.5,-24 121.5,-24 121.5,-12 121.5,-12 121.5,-6 127.5,0 133.5,0 133.5,0 285.5,0 285.5,0 291.5,0 297.5,-6 297.5,-12 297.5,-12 297.5,-24 297.5,-24 297.5,-30 291.5,-36 285.5,-36"/>
<text text-anchor="middle" x="209.5" y="-15.5" font-family="Helvetica,sans-Serif" font-size="10.00">EpsilonGreedy (Random/Greedy)</text>
</g>
<!-- SelectReagent&#45;&gt;EpsilonGreedy -->
<g id="edge9" class="edge">
<title>SelectReagent&#45;&gt;EpsilonGreedy</title>
<path fill="none" stroke="black" d="M217.26,-289.92C235.04,-268.82 261.5,-231.02 261.5,-193 261.5,-193 261.5,-193 261.5,-133 261.5,-99.01 262.14,-88.18 246.5,-58 243.92,-53.03 240.52,-48.24 236.82,-43.83"/>
<polygon fill="black" stroke="black" points="239.29,-41.35 229.96,-36.34 234.13,-46.08 239.29,-41.35"/>
</g>
<!-- Greedy&#45;&gt;RouletteWheel -->
<!-- RouletteWheel&#45;&gt;UCB -->
<!-- UCB&#45;&gt;BayesUCB -->
<!-- BayesUCB&#45;&gt;EpsilonGreedy -->
</g>
</svg>
