<?xml version="1.0" encoding="UTF-8" standalone="no"?>
<!DOCTYPE svg PUBLIC "-//W3C//DTD SVG 1.1//EN"
 "http://www.w3.org/Graphics/SVG/1.1/DTD/svg11.dtd">
<!-- Generated by graphviz version 2.43.0 (0)
 -->
<!-- Title: Evaluators Pages: 1 -->
<svg width="324pt" height="624pt"
 viewBox="0.00 0.00 324.00 624.00" xmlns="http://www.w3.org/2000/svg" xmlns:xlink="http://www.w3.org/1999/xlink">
<g id="graph0" class="graph" transform="scale(1 1) rotate(0) translate(4 620)">
<title>Evaluators</title>
<polygon fill="white" stroke="transparent" points="-4,4 -4,-620 320,-620 320,4 -4,4"/>
<!-- Evaluate -->
<g id="node1" class="node">
<title>Evaluate</title>
<path fill="#fffacd" stroke="black" d="M240.5,-616C240.5,-616 149.5,-616 149.5,-616 143.5,-616 137.5,-610 137.5,-604 137.5,-604 137.5,-592 137.5,-592 137.5,-586 143.5,-580 149.5,-580 149.5,-580 240.5,-580 240.5,-580 246.5,-580 252.5,-586 252.5,-592 252.5,-592 252.5,-604 252.5,-604 252.5,-610 246.5,-616 240.5,-616"/>
<text text-anchor="middle" x="195" y="-595.5" font-family="Helvetica,sans-Serif" font-size="10.00">Evaluate Compound</text>
</g>
<!-- fast_label -->
<g id="node2" class="node">
<title>fast_label</title>
<path fill="lightgrey" stroke="transparent" d="M81,-558C81,-558 51,-558 51,-558 45,-558 39,-552 39,-546 39,-546 39,-534 39,-534 39,-528 45,-522 51,-522 51,-522 81,-522 81,-522 87,-522 93,-528 93,-534 93,-534 93,-546 93,-546 93,-552 87,-558 81,-558"/>
<text text-anchor="middle" x="66" y="-537.8" font-family="Helvetica,sans-Serif" font-size="9.00">Fast</text>
</g>
<!-- Evaluate&#45;&gt;fast_label -->
<!-- Lookup -->
<g id="node3" class="node">
<title>Lookup</title>
<path fill="#90ee90" stroke="black" d="M116,-500C116,-500 12,-500 12,-500 6,-500 0,-494 0,-488 0,-488 0,-476 0,-476 0,-470 6,-464 12,-464 12,-464 116,-464 116,-464 122,-464 128,-470 128,-476 128,-476 128,-488 128,-488 128,-494 122,-500 116,-500"/>
<text text-anchor="middle" x="64" y="-479.5" font-family="Helvetica,sans-Serif" font-size="10.00">LookupEvaluator (CSV)</text>
</g>
<!-- Evaluate&#45;&gt;Lookup -->
<g id="edge11" class="edge">
<title>Evaluate&#45;&gt;Lookup</title>
<path fill="none" stroke="black" d="M168.36,-579.87C158.83,-573.37 148.18,-565.68 139,-558 120.36,-542.4 101,-522.95 86.63,-507.76"/>
<polygon fill="black" stroke="black" points="88.98,-505.16 79.59,-500.26 83.87,-509.95 88.98,-505.16"/>
</g>
<!-- DB -->
<g id="node4" class="node">
<title>DB</title>
<path fill="#90ee90" stroke="black" d="M145.5,-442C145.5,-442 50.5,-442 50.5,-442 44.5,-442 38.5,-436 38.5,-430 38.5,-430 38.5,-418 38.5,-418 38.5,-412 44.5,-406 50.5,-406 50.5,-406 145.5,-406 145.5,-406 151.5,-406 157.5,-412 157.5,-418 157.5,-418 157.5,-430 157.5,-430 157.5,-436 151.5,-442 145.5,-442"/>
<text text-anchor="middle" x="98" y="-421.5" font-family="Helvetica,sans-Serif" font-size="10.00">DBEvaluator (SQLite)</text>
</g>
<!-- Evaluate&#45;&gt;DB -->
<g id="edge12" class="edge">
<title>Evaluate&#45;&gt;DB</title>
<path fill="none" stroke="black" d="M182.15,-579.68C177.63,-573.11 172.74,-565.41 169,-558 148.98,-518.34 158.34,-501.8 135,-464 132,-459.14 128.31,-454.37 124.45,-449.93"/>
<polygon fill="black" stroke="black" points="126.77,-447.28 117.39,-442.34 121.64,-452.04 126.77,-447.28"/>
</g>
<!-- FP -->
<g id="node6" class="node">
<title>FP</title>
<path fill="#add8e6" stroke="black" d="M175.5,-326C175.5,-326 56.5,-326 56.5,-326 50.5,-326 44.5,-320 44.5,-314 44.5,-314 44.5,-302 44.5,-302 44.5,-296 50.5,-290 56.5,-290 56.5,-290 175.5,-290 175.5,-290 181.5,-290 187.5,-296 187.5,-302 187.5,-302 187.5,-314 187.5,-314 187.5,-320 181.5,-326 175.5,-326"/>
<text text-anchor="middle" x="116" y="-305.5" font-family="Helvetica,sans-Serif" font-size="10.00">FPEvaluator (Fingerprints)</text>
</g>
<!-- Evaluate&#45;&gt;FP -->
<g id="edge13" class="edge">
<title>Evaluate&#45;&gt;FP</title>
<path fill="none" stroke="black" d="M191.29,-579.71C186.85,-557.46 180,-517.53 180,-483 180,-483 180,-483 180,-423 180,-388 174.41,-377.77 156,-348 152.86,-342.93 148.92,-338.04 144.75,-333.54"/>
<polygon fill="black" stroke="black" points="147.14,-330.99 137.6,-326.38 142.19,-335.93 147.14,-330.99"/>
</g>
<!-- MW -->
<g id="node7" class="node">
<title>MW</title>
<path fill="#add8e6" stroke="black" d="M205.5,-268C205.5,-268 82.5,-268 82.5,-268 76.5,-268 70.5,-262 70.5,-256 70.5,-256 70.5,-244 70.5,-244 70.5,-238 76.5,-232 82.5,-232 82.5,-232 205.5,-232 205.5,-232 211.5,-232 217.5,-238 217.5,-244 217.5,-244 217.5,-256 217.5,-256 217.5,-262 211.5,-268 205.5,-268"/>
<text text-anchor="middle" x="144" y="-247.5" font-family="Helvetica,sans-Serif" font-size="10.00">MWEvaluator (Mol Weight)</text>
</g>
<!-- Evaluate&#45;&gt;MW -->
<g id="edge14" class="edge">
<title>Evaluate&#45;&gt;MW</title>
<path fill="none" stroke="black" d="M198.71,-579.71C203.15,-557.46 210,-517.53 210,-483 210,-483 210,-483 210,-365 210,-331.01 212.99,-318.84 195,-290 191.52,-284.41 186.93,-279.33 181.92,-274.81"/>
<polygon fill="black" stroke="black" points="183.78,-271.81 173.83,-268.19 179.35,-277.23 183.78,-271.81"/>
</g>
<!-- ROCS -->
<g id="node9" class="node">
<title>ROCS</title>
<path fill="#e6e6fa" stroke="black" d="M235.5,-152C235.5,-152 112.5,-152 112.5,-152 106.5,-152 100.5,-146 100.5,-140 100.5,-140 100.5,-128 100.5,-128 100.5,-122 106.5,-116 112.5,-116 112.5,-116 235.5,-116 235.5,-116 241.5,-116 247.5,-122 247.5,-128 247.5,-128 247.5,-140 247.5,-140 247.5,-146 241.5,-152 235.5,-152"/>
<text text-anchor="middle" x="174" y="-131.5" font-family="Helvetica,sans-Serif" font-size="10.00">ROCSEvaluator (3D Shape)</text>
</g>
<!-- Evaluate&#45;&gt;ROCS -->
<g id="edge15" class="edge">
<title>Evaluate&#45;&gt;ROCS</title>
<path fill="none" stroke="black" d="M206.59,-579.68C219.92,-558.03 240,-519.39 240,-483 240,-483 240,-483 240,-249 240,-214.5 238.44,-203.15 220,-174 216.55,-168.54 212.09,-163.45 207.31,-158.86"/>
<polygon fill="black" stroke="black" points="209.44,-156.08 199.63,-152.09 204.81,-161.33 209.44,-156.08"/>
</g>
<!-- FRED -->
<g id="node10" class="node">
<title>FRED</title>
<path fill="#e6e6fa" stroke="black" d="M266,-94C266,-94 156,-94 156,-94 150,-94 144,-88 144,-82 144,-82 144,-70 144,-70 144,-64 150,-58 156,-58 156,-58 266,-58 266,-58 272,-58 278,-64 278,-70 278,-70 278,-82 278,-82 278,-88 272,-94 266,-94"/>
<text text-anchor="middle" x="211" y="-73.5" font-family="Helvetica,sans-Serif" font-size="10.00">FredEvaluator (Docking)</text>
</g>
<!-- Evaluate&#45;&gt;FRED -->
<g id="edge16" class="edge">
<title>Evaluate&#45;&gt;FRED</title>
<path fill="none" stroke="black" d="M216.79,-579.85C223.87,-573.52 231.35,-565.95 237,-558 258.11,-528.33 270,-519.42 270,-483 270,-483 270,-483 270,-191 270,-157.01 271.93,-145.48 255,-116 251.94,-110.67 247.88,-105.69 243.47,-101.19"/>
<polygon fill="black" stroke="black" points="245.53,-98.33 235.82,-94.09 240.77,-103.46 245.53,-98.33"/>
</g>
<!-- ML -->
<g id="node11" class="node">
<title>ML</title>
<path fill="#e6e6fa" stroke="black" d="M304,-36C304,-36 206,-36 206,-36 200,-36 194,-30 194,-24 194,-24 194,-12 194,-12 194,-6 200,0 206,0 206,0 304,0 304,0 310,0 316,-6 316,-12 316,-12 316,-24 316,-24 316,-30 310,-36 304,-36"/>
<text text-anchor="middle" x="255" y="-15.5" font-family="Helvetica,sans-Serif" font-size="10.00">MLClassifierEvaluator</text>
</g>
<!-- Evaluate&#45;&gt;ML -->
<g id="edge17" class="edge">
<title>Evaluate&#45;&gt;ML</title>
<path fill="none" stroke="black" d="M231.25,-579.9C241.38,-573.95 251.84,-566.58 260,-558 286.03,-530.62 300,-520.78 300,-483 300,-483 300,-483 300,-133 300,-99.01 299.06,-88.95 285,-58 282.85,-53.26 280.02,-48.57 276.96,-44.17"/>
<polygon fill="black" stroke="black" points="279.72,-42.01 270.91,-36.13 274.13,-46.23 279.72,-42.01"/>
</g>
<!-- fast_label&#45;&gt;Lookup -->
<!-- Lookup&#45;&gt;DB -->
<!-- compute_label -->
<g id="node5" class="node">
<title>compute_label</title>
<path fill="lightgrey" stroke="transparent" d="M136.5,-384C136.5,-384 77.5,-384 77.5,-384 71.5,-384 65.5,-378 65.5,-372 65.5,-372 65.5,-360 65.5,-360 65.5,-354 71.5,-348 77.5,-348 77.5,-348 136.5,-348 136.5,-348 142.5,-348 148.5,-354 148.5,-360 148.5,-360 148.5,-372 148.5,-372 148.5,-378 142.5,-384 136.5,-384"/>
<text text-anchor="middle" x="107" y="-363.8" font-family="Helvetica,sans-Serif" font-size="9.00">Computational</text>
</g>
<!-- DB&#45;&gt;compute_label -->
<!-- compute_label&#45;&gt;FP -->
<!-- FP&#45;&gt;MW -->
<!-- slow_label -->
<g id="node8" class="node">
<title>slow_label</title>
<path fill="lightgrey" stroke="transparent" d="M200.5,-210C200.5,-210 99.5,-210 99.5,-210 93.5,-210 87.5,-204 87.5,-198 87.5,-198 87.5,-186 87.5,-186 87.5,-180 93.5,-174 99.5,-174 99.5,-174 200.5,-174 200.5,-174 206.5,-174 212.5,-180 212.5,-186 212.5,-186 212.5,-198 212.5,-198 212.5,-204 206.5,-210 200.5,-210"/>
<text text-anchor="middle" x="150" y="-189.8" font-family="Helvetica,sans-Serif" font-size="9.00">Slow (use processes&gt;1)</text>
</g>
<!-- MW&#45;&gt;slow_label -->
<!-- slow_label&#45;&gt;ROCS -->
<!-- ROCS&#45;&gt;FRED -->
<!-- FRED&#45;&gt;ML -->
</g>
</svg>
