<?xml version="1.0" encoding="UTF-8" standalone="no"?>
<!DOCTYPE svg PUBLIC "-//W3C//DTD SVG 1.1//EN"
 "http://www.w3.org/Graphics/SVG/1.1/DTD/svg11.dtd">
<!-- Generated by graphviz version 2.43.0 (0)
 -->
<!-- Title: LibraryEnumeration Pages: 1 -->
<svg width="251pt" height="1362pt"
 viewBox="0.00 0.00 251.00 1362.00" xmlns="http://www.w3.org/2000/svg" xmlns:xlink="http://www.w3.org/1999/xlink">
<g id="graph0" class="graph" transform="scale(1 1) rotate(0) translate(4 1358)">
<title>LibraryEnumeration</title>
<polygon fill="white" stroke="transparent" points="-4,4 -4,-1358 247,-1358 247,4 -4,4"/>
<!-- fundamental_label -->
<g id="node1" class="node">
<title>fundamental_label</title>
<path fill="lightgrey" stroke="transparent" d="M116.5,-1354C116.5,-1354 33.5,-1354 33.5,-1354 27.5,-1354 21.5,-1348 21.5,-1342 21.5,-1342 21.5,-1330 21.5,-1330 21.5,-1324 27.5,-1318 33.5,-1318 33.5,-1318 116.5,-1318 116.5,-1318 122.5,-1318 128.5,-1324 128.5,-1330 128.5,-1330 128.5,-1342 128.5,-1342 128.5,-1348 122.5,-1354 116.5,-1354"/>
<text text-anchor="middle" x="75" y="-1333.5" font-family="Helvetica Bold" font-size="10.00">Fundamental Types</text>
</g>
<!-- InputSource -->
<g id="node2" class="node">
<title>InputSource</title>
<path fill="#dcdcdc" stroke="black" d="M119.5,-1287C119.5,-1287 30.5,-1287 30.5,-1287 24.5,-1287 18.5,-1281 18.5,-1275 18.5,-1275 18.5,-1263 18.5,-1263 18.5,-1257 24.5,-1251 30.5,-1251 30.5,-1251 119.5,-1251 119.5,-1251 125.5,-1251 131.5,-1257 131.5,-1263 131.5,-1263 131.5,-1275 131.5,-1275 131.5,-1281 125.5,-1287 119.5,-1287"/>
<text text-anchor="middle" x="75" y="-1266.5" font-family="Helvetica,sans-Serif" font-size="10.00">InputSource (enum)</text>
</g>
<!-- fundamental_label&#45;&gt;InputSource -->
<!-- ProtectingGroupInfo -->
<g id="node3" class="node">
<title>ProtectingGroupInfo</title>
<path fill="#dcdcdc" stroke="black" d="M120,-1220C120,-1220 30,-1220 30,-1220 24,-1220 18,-1214 18,-1208 18,-1208 18,-1196 18,-1196 18,-1190 24,-1184 30,-1184 30,-1184 120,-1184 120,-1184 126,-1184 132,-1190 132,-1196 132,-1196 132,-1208 132,-1208 132,-1214 126,-1220 120,-1220"/>
<text text-anchor="middle" x="75" y="-1199.5" font-family="Helvetica,sans-Serif" font-size="10.00">ProtectingGroupInfo</text>
</g>
<!-- InputSource&#45;&gt;ProtectingGroupInfo -->
<!-- DeprotectionSpec -->
<g id="node4" class="node">
<title>DeprotectionSpec</title>
<path fill="#dcdcdc" stroke="black" d="M114.5,-1144C114.5,-1144 35.5,-1144 35.5,-1144 29.5,-1144 23.5,-1138 23.5,-1132 23.5,-1132 23.5,-1120 23.5,-1120 23.5,-1114 29.5,-1108 35.5,-1108 35.5,-1108 114.5,-1108 114.5,-1108 120.5,-1108 126.5,-1114 126.5,-1120 126.5,-1120 126.5,-1132 126.5,-1132 126.5,-1138 120.5,-1144 114.5,-1144"/>
<text text-anchor="middle" x="75" y="-1123.5" font-family="Helvetica,sans-Serif" font-size="10.00">DeprotectionSpec</text>
</g>
<!-- ProtectingGroupInfo&#45;&gt;DeprotectionSpec -->
<!-- StepInput -->
<g id="node5" class="node">
<title>StepInput</title>
<path fill="#dcdcdc" stroke="black" d="M94.5,-1077C94.5,-1077 55.5,-1077 55.5,-1077 49.5,-1077 43.5,-1071 43.5,-1065 43.5,-1065 43.5,-1053 43.5,-1053 43.5,-1047 49.5,-1041 55.5,-1041 55.5,-1041 94.5,-1041 94.5,-1041 100.5,-1041 106.5,-1047 106.5,-1053 106.5,-1053 106.5,-1065 106.5,-1065 106.5,-1071 100.5,-1077 94.5,-1077"/>
<text text-anchor="middle" x="75" y="-1056.5" font-family="Helvetica,sans-Serif" font-size="10.00">StepInput</text>
</g>
<!-- DeprotectionSpec&#45;&gt;StepInput -->
<!-- StepInput&#45;&gt;InputSource -->
<g id="edge20" class="edge">
<title>StepInput&#45;&gt;InputSource</title>
<path fill="none" stroke="black" stroke-dasharray="5,2" d="M104.22,-1077.02C115.15,-1084.97 126.49,-1095.47 133,-1108 142.58,-1126.44 147.9,-1202.21 139,-1220 134.05,-1229.89 125.99,-1238.27 117.23,-1245.13"/>
<polygon fill="black" stroke="black" points="115.15,-1242.32 109.06,-1250.99 119.23,-1248.01 115.15,-1242.32"/>
<text text-anchor="middle" x="154.5" y="-1161.8" font-family="Helvetica,sans-Serif" font-size="9.00">uses</text>
</g>
<!-- core_label -->
<g id="node6" class="node">
<title>core_label</title>
<path fill="lightgrey" stroke="transparent" d="M116.5,-1001C116.5,-1001 33.5,-1001 33.5,-1001 27.5,-1001 21.5,-995 21.5,-989 21.5,-989 21.5,-977 21.5,-977 21.5,-971 27.5,-965 33.5,-965 33.5,-965 116.5,-965 116.5,-965 122.5,-965 128.5,-971 128.5,-977 128.5,-977 128.5,-989 128.5,-989 128.5,-995 122.5,-1001 116.5,-1001"/>
<text text-anchor="middle" x="75" y="-980.5" font-family="Helvetica Bold" font-size="10.00">Reaction Definition</text>
</g>
<!-- StepInput&#45;&gt;core_label -->
<!-- ReactionDef -->
<g id="node7" class="node">
<title>ReactionDef</title>
<path fill="#007bff" stroke="black" d="M131,-934C131,-934 19,-934 19,-934 13,-934 7,-928 7,-922 7,-922 7,-910 7,-910 7,-904 13,-898 19,-898 19,-898 131,-898 131,-898 137,-898 143,-904 143,-910 143,-910 143,-922 143,-922 143,-928 137,-934 131,-934"/>
<text text-anchor="middle" x="75" y="-913.5" font-family="Helvetica,sans-Serif" font-size="10.00" fill="white">ReactionDef (core class)</text>
</g>
<!-- core_label&#45;&gt;ReactionDef -->
<!-- ReactionDef&#45;&gt;DeprotectionSpec -->
<g id="edge21" class="edge">
<title>ReactionDef&#45;&gt;DeprotectionSpec</title>
<path fill="none" stroke="black" stroke-dasharray="5,2" d="M106.67,-934.22C117.75,-942.03 128.93,-952.38 135,-965 141.93,-979.42 137.25,-985.16 135,-1001 130.06,-1035.82 129.1,-1045.74 113,-1077 108.87,-1085.01 103.31,-1092.99 97.71,-1100.06"/>
<polygon fill="black" stroke="black" points="94.9,-1097.98 91.21,-1107.91 100.29,-1102.44 94.9,-1097.98"/>
<text text-anchor="middle" x="152.5" y="-1018.8" font-family="Helvetica,sans-Serif" font-size="9.00">contains</text>
</g>
<!-- config_label -->
<g id="node8" class="node">
<title>config_label</title>
<path fill="lightgrey" stroke="transparent" d="M103.5,-867C103.5,-867 46.5,-867 46.5,-867 40.5,-867 34.5,-861 34.5,-855 34.5,-855 34.5,-843 34.5,-843 34.5,-837 40.5,-831 46.5,-831 46.5,-831 103.5,-831 103.5,-831 109.5,-831 115.5,-837 115.5,-843 115.5,-843 115.5,-855 115.5,-855 115.5,-861 109.5,-867 103.5,-867"/>
<text text-anchor="middle" x="75" y="-846.5" font-family="Helvetica Bold" font-size="10.00">Configuration</text>
</g>
<!-- ReactionDef&#45;&gt;config_label -->
<!-- ValidationResult -->
<g id="node13" class="node">
<title>ValidationResult</title>
<path fill="#28a745" stroke="black" d="M111,-523C111,-523 39,-523 39,-523 33,-523 27,-517 27,-511 27,-511 27,-499 27,-499 27,-493 33,-487 39,-487 39,-487 111,-487 111,-487 117,-487 123,-493 123,-499 123,-499 123,-511 123,-511 123,-517 117,-523 111,-523"/>
<text text-anchor="middle" x="75" y="-502.5" font-family="Helvetica,sans-Serif" font-size="10.00" fill="white">ValidationResult</text>
</g>
<!-- ReactionDef&#45;&gt;ValidationResult -->
<g id="edge22" class="edge">
<title>ReactionDef&#45;&gt;ValidationResult</title>
<path fill="none" stroke="black" d="M94.11,-897.84C103.19,-889.13 113.82,-878.06 122,-867 162.33,-812.47 178.26,-798.72 195,-733 212.03,-666.13 170.72,-558.21 153,-538 147.31,-531.51 140.11,-526.32 132.39,-522.16"/>
<polygon fill="black" stroke="black" points="133.68,-518.9 123.15,-517.75 130.66,-525.22 133.68,-518.9"/>
<text text-anchor="middle" x="216" y="-712.8" font-family="Helvetica,sans-Serif" font-size="9.00">returns</text>
</g>
<!-- ReactionConfig -->
<g id="node9" class="node">
<title>ReactionConfig</title>
<path fill="#17a2b8" stroke="black" d="M108,-800C108,-800 42,-800 42,-800 36,-800 30,-794 30,-788 30,-788 30,-776 30,-776 30,-770 36,-764 42,-764 42,-764 108,-764 108,-764 114,-764 120,-770 120,-776 120,-776 120,-788 120,-788 120,-794 114,-800 108,-800"/>
<text text-anchor="middle" x="75" y="-779.5" font-family="Helvetica,sans-Serif" font-size="10.00" fill="white">ReactionConfig</text>
</g>
<!-- config_label&#45;&gt;ReactionConfig -->
<!-- ReactionConfig&#45;&gt;ProtectingGroupInfo -->
<g id="edge25" class="edge">
<title>ReactionConfig&#45;&gt;ProtectingGroupInfo</title>
<path fill="none" stroke="black" stroke-dasharray="5,2" d="M120.18,-784.64C151.25,-788.61 189.15,-799.97 202,-831 219.52,-873.29 208.51,-888.69 202,-934 188.03,-1031.24 185.85,-1061.18 133,-1144 125.25,-1156.14 114.47,-1167.65 104.3,-1177.11"/>
<polygon fill="black" stroke="black" points="101.82,-1174.64 96.71,-1183.93 106.49,-1179.85 101.82,-1174.64"/>
<text text-anchor="middle" x="220" y="-980.8" font-family="Helvetica,sans-Serif" font-size="9.00">uses (opt)</text>
</g>
<!-- ReactionConfig&#45;&gt;StepInput -->
<g id="edge24" class="edge">
<title>ReactionConfig&#45;&gt;StepInput</title>
<path fill="none" stroke="black" stroke-dasharray="5,2" d="M120.02,-789.68C144.85,-795.91 173.68,-807.92 189,-831 197.85,-844.33 192.05,-851.29 189,-867 182.89,-898.52 153.05,-974.45 135,-1001 126.76,-1013.12 115.56,-1024.63 105.07,-1034.09"/>
<polygon fill="black" stroke="black" points="102.49,-1031.7 97.25,-1040.91 107.09,-1036.98 102.49,-1031.7"/>
<text text-anchor="middle" x="190.5" y="-913.8" font-family="Helvetica,sans-Serif" font-size="9.00">uses</text>
</g>
<!-- ReactionConfig&#45;&gt;ReactionDef -->
<g id="edge23" class="edge">
<title>ReactionConfig&#45;&gt;ReactionDef</title>
<path fill="none" stroke="black" stroke-width="2" d="M98.09,-800.04C107.32,-808.26 116.95,-818.95 122,-831 130.94,-852.32 133.91,-862.62 123,-883 121.44,-885.91 119.49,-888.61 117.26,-891.09"/>
<polygon fill="black" stroke="black" stroke-width="2" points="114.86,-888.54 109.92,-897.92 119.63,-893.67 114.86,-888.54"/>
<text text-anchor="middle" x="158.5" y="-846.8" font-family="Helvetica,sans-Serif" font-size="9.00">contains 1+</text>
</g>
<!-- pipeline_label -->
<g id="node10" class="node">
<title>pipeline_label</title>
<path fill="lightgrey" stroke="transparent" d="M90.5,-733C90.5,-733 59.5,-733 59.5,-733 53.5,-733 47.5,-727 47.5,-721 47.5,-721 47.5,-709 47.5,-709 47.5,-703 53.5,-697 59.5,-697 59.5,-697 90.5,-697 90.5,-697 96.5,-697 102.5,-703 102.5,-709 102.5,-709 102.5,-721 102.5,-721 102.5,-727 96.5,-733 90.5,-733"/>
<text text-anchor="middle" x="75" y="-712.5" font-family="Helvetica Bold" font-size="10.00">Pipeline</text>
</g>
<!-- ReactionConfig&#45;&gt;pipeline_label -->
<!-- SynthesisPipeline -->
<g id="node11" class="node">
<title>SynthesisPipeline</title>
<path fill="#007bff" stroke="black" d="M114.5,-666C114.5,-666 35.5,-666 35.5,-666 29.5,-666 23.5,-660 23.5,-654 23.5,-654 23.5,-642 23.5,-642 23.5,-636 29.5,-630 35.5,-630 35.5,-630 114.5,-630 114.5,-630 120.5,-630 126.5,-636 126.5,-642 126.5,-642 126.5,-654 126.5,-654 126.5,-660 120.5,-666 114.5,-666"/>
<text text-anchor="middle" x="75" y="-645.5" font-family="Helvetica,sans-Serif" font-size="10.00" fill="white">SynthesisPipeline</text>
</g>
<!-- pipeline_label&#45;&gt;SynthesisPipeline -->
<!-- SynthesisPipeline&#45;&gt;ReactionConfig -->
<g id="edge26" class="edge">
<title>SynthesisPipeline&#45;&gt;ReactionConfig</title>
<path fill="none" stroke="black" stroke-width="2" d="M91.16,-666.24C98.09,-674.8 105.41,-685.71 109,-697 113.85,-712.25 113.85,-717.75 109,-733 106.47,-740.94 102.11,-748.69 97.33,-755.57"/>
<polygon fill="black" stroke="black" stroke-width="2" points="94.38,-753.67 91.16,-763.76 99.97,-757.88 94.38,-753.67"/>
<text text-anchor="middle" x="152.5" y="-712.8" font-family="Helvetica,sans-Serif" font-size="9.00">constructed from</text>
</g>
<!-- result_label -->
<g id="node12" class="node">
<title>result_label</title>
<path fill="lightgrey" stroke="transparent" d="M101.5,-599C101.5,-599 48.5,-599 48.5,-599 42.5,-599 36.5,-593 36.5,-587 36.5,-587 36.5,-575 36.5,-575 36.5,-569 42.5,-563 48.5,-563 48.5,-563 101.5,-563 101.5,-563 107.5,-563 113.5,-569 113.5,-575 113.5,-575 113.5,-587 113.5,-587 113.5,-593 107.5,-599 101.5,-599"/>
<text text-anchor="middle" x="75" y="-578.5" font-family="Helvetica Bold" font-size="10.00">Result Types</text>
</g>
<!-- SynthesisPipeline&#45;&gt;result_label -->
<!-- EnumerationResult -->
<g id="node14" class="node">
<title>EnumerationResult</title>
<path fill="#28a745" stroke="black" d="M118,-447C118,-447 32,-447 32,-447 26,-447 20,-441 20,-435 20,-435 20,-423 20,-423 20,-417 26,-411 32,-411 32,-411 118,-411 118,-411 124,-411 130,-417 130,-423 130,-423 130,-435 130,-435 130,-441 124,-447 118,-447"/>
<text text-anchor="middle" x="75" y="-426.5" font-family="Helvetica,sans-Serif" font-size="10.00" fill="white">EnumerationResult</text>
</g>
<!-- SynthesisPipeline&#45;&gt;EnumerationResult -->
<g id="edge27" class="edge">
<title>SynthesisPipeline&#45;&gt;EnumerationResult</title>
<path fill="none" stroke="black" d="M97.23,-629.82C106.09,-621.57 115.3,-610.9 120,-599 125.88,-584.12 122.08,-578.86 120,-563 119.1,-556.16 116.9,-554.84 116,-548 115.42,-543.59 114.37,-542.13 116,-538 119.34,-529.52 126.66,-531.48 130,-523 135.87,-508.11 135.99,-501.84 130,-487 124.96,-474.52 115.74,-463.26 106.27,-454.1"/>
<polygon fill="black" stroke="black" points="108.45,-451.35 98.7,-447.22 103.75,-456.54 108.45,-451.35"/>
<text text-anchor="middle" x="133" y="-540.8" font-family="Helvetica,sans-Serif" font-size="9.00">returns</text>
</g>
<!-- AutoDetectionResult -->
<g id="node16" class="node">
<title>AutoDetectionResult</title>
<path fill="#28a745" stroke="black" d="M121.5,-313C121.5,-313 28.5,-313 28.5,-313 22.5,-313 16.5,-307 16.5,-301 16.5,-301 16.5,-289 16.5,-289 16.5,-283 22.5,-277 28.5,-277 28.5,-277 121.5,-277 121.5,-277 127.5,-277 133.5,-283 133.5,-289 133.5,-289 133.5,-301 133.5,-301 133.5,-307 127.5,-313 121.5,-313"/>
<text text-anchor="middle" x="75" y="-292.5" font-family="Helvetica,sans-Serif" font-size="10.00" fill="white">AutoDetectionResult</text>
</g>
<!-- SynthesisPipeline&#45;&gt;AutoDetectionResult -->
<g id="edge28" class="edge">
<title>SynthesisPipeline&#45;&gt;AutoDetectionResult</title>
<path fill="none" stroke="black" d="M101.95,-629.84C112.93,-621.66 124.91,-611.04 133,-599 146.25,-579.28 145.4,-571.48 149,-548 162.77,-458.1 175.69,-424.3 133,-344 127.98,-334.55 120.24,-326.24 112.03,-319.3"/>
<polygon fill="black" stroke="black" points="114.13,-316.5 104.1,-313.08 109.81,-322.01 114.13,-316.5"/>
<text text-anchor="middle" x="190.5" y="-464.8" font-family="Helvetica,sans-Serif" font-size="9.00">returns (opt)</text>
</g>
<!-- result_label&#45;&gt;ValidationResult -->
<!-- ValidationResult&#45;&gt;EnumerationResult -->
<!-- EnumerationError -->
<g id="node15" class="node">
<title>EnumerationError</title>
<path fill="#28a745" stroke="black" d="M114,-380C114,-380 36,-380 36,-380 30,-380 24,-374 24,-368 24,-368 24,-356 24,-356 24,-350 30,-344 36,-344 36,-344 114,-344 114,-344 120,-344 126,-350 126,-356 126,-356 126,-368 126,-368 126,-374 120,-380 114,-380"/>
<text text-anchor="middle" x="75" y="-359.5" font-family="Helvetica,sans-Serif" font-size="10.00" fill="white">EnumerationError</text>
</g>
<!-- EnumerationResult&#45;&gt;EnumerationError -->
<!-- WriteLibrary -->
<g id="node18" class="node">
<title>WriteLibrary</title>
<path fill="#ffc107" stroke="black" d="M138,-170C138,-170 12,-170 12,-170 6,-170 0,-164 0,-158 0,-158 0,-146 0,-146 0,-140 6,-134 12,-134 12,-134 138,-134 138,-134 144,-134 150,-140 150,-146 150,-146 150,-158 150,-158 150,-164 144,-170 138,-170"/>
<text text-anchor="middle" x="75" y="-149.5" font-family="Helvetica,sans-Serif" font-size="10.00">write_enumerated_library()</text>
</g>
<!-- EnumerationResult&#45;&gt;WriteLibrary -->
<g id="edge29" class="edge">
<title>EnumerationResult&#45;&gt;WriteLibrary</title>
<path fill="none" stroke="black" stroke-dasharray="5,2" d="M96.32,-410.98C112.39,-398.05 131.85,-382.15 133,-380 154.67,-339.55 146.44,-322.43 140,-277 139.69,-274.82 119.07,-202.92 118,-201 113.48,-192.84 107.34,-184.91 101.12,-177.91"/>
<polygon fill="black" stroke="black" points="103.26,-175.08 93.87,-170.18 98.16,-179.87 103.26,-175.08"/>
<text text-anchor="middle" x="158.5" y="-292.8" font-family="Helvetica,sans-Serif" font-size="9.00">input</text>
</g>
<!-- ResultsDF -->
<g id="node19" class="node">
<title>ResultsDF</title>
<path fill="#ffc107" stroke="black" d="M127,-103C127,-103 23,-103 23,-103 17,-103 11,-97 11,-91 11,-91 11,-79 11,-79 11,-73 17,-67 23,-67 23,-67 127,-67 127,-67 133,-67 139,-73 139,-79 139,-79 139,-91 139,-91 139,-97 133,-103 127,-103"/>
<text text-anchor="middle" x="75" y="-82.5" font-family="Helvetica,sans-Serif" font-size="10.00">results_to_dataframe()</text>
</g>
<!-- EnumerationResult&#45;&gt;ResultsDF -->
<g id="edge30" class="edge">
<title>EnumerationResult&#45;&gt;ResultsDF</title>
<path fill="none" stroke="black" stroke-dasharray="5,2" d="M112.92,-410.79C126.5,-403.04 140.93,-392.73 151,-380 170.53,-355.3 168.82,-344.05 174,-313 183.27,-257.42 169.54,-153.15 157,-134 150.08,-123.44 139.97,-114.9 129.2,-108.12"/>
<polygon fill="black" stroke="black" points="130.87,-105.04 120.46,-103.06 127.36,-111.1 130.87,-105.04"/>
<text text-anchor="middle" x="188.5" y="-254.8" font-family="Helvetica,sans-Serif" font-size="9.00">input</text>
</g>
<!-- EnumerationError&#45;&gt;AutoDetectionResult -->
<!-- utility_label -->
<g id="node17" class="node">
<title>utility_label</title>
<path fill="lightgrey" stroke="transparent" d="M99.5,-237C99.5,-237 50.5,-237 50.5,-237 44.5,-237 38.5,-231 38.5,-225 38.5,-225 38.5,-213 38.5,-213 38.5,-207 44.5,-201 50.5,-201 50.5,-201 99.5,-201 99.5,-201 105.5,-201 111.5,-207 111.5,-213 111.5,-213 111.5,-225 111.5,-225 111.5,-231 105.5,-237 99.5,-237"/>
<text text-anchor="middle" x="75" y="-216.5" font-family="Helvetica Bold" font-size="10.00">File Utilities</text>
</g>
<!-- AutoDetectionResult&#45;&gt;utility_label -->
<!-- utility_label&#45;&gt;WriteLibrary -->
<!-- WriteLibrary&#45;&gt;ResultsDF -->
<!-- FailuresDF -->
<g id="node20" class="node">
<title>FailuresDF</title>
<path fill="#ffc107" stroke="black" d="M129,-36C129,-36 21,-36 21,-36 15,-36 9,-30 9,-24 9,-24 9,-12 9,-12 9,-6 15,0 21,0 21,0 129,0 129,0 135,0 141,-6 141,-12 141,-12 141,-24 141,-24 141,-30 135,-36 129,-36"/>
<text text-anchor="middle" x="75" y="-15.5" font-family="Helvetica,sans-Serif" font-size="10.00">failures_to_dataframe()</text>
</g>
<!-- ResultsDF&#45;&gt;FailuresDF -->
</g>
</svg>
