<?xml version="1.0" encoding="UTF-8" standalone="no"?>
<!DOCTYPE svg PUBLIC "-//W3C//DTD SVG 1.1//EN"
 "http://www.w3.org/Graphics/SVG/1.1/DTD/svg11.dtd">
<!-- Generated by graphviz version 2.43.0 (0)
 -->
<!-- Title: TACTICS Pages: 1 -->
<svg width="564pt" height="200pt"
 viewBox="0.00 0.00 564.00 200.00" xmlns="http://www.w3.org/2000/svg" xmlns:xlink="http://www.w3.org/1999/xlink">
<g id="graph0" class="graph" transform="scale(1 1) rotate(0) translate(4 196)">
<title>TACTICS</title>
<polygon fill="white" stroke="transparent" points="-4,4 -4,-196 560,-196 560,4 -4,4"/>
<g id="clust1" class="cluster">
<title>cluster_plugins</title>
<polygon fill="#f5f5f5" stroke="#f5f5f5" points="8,-8 8,-83 329,-83 329,-8 8,-8"/>
<text text-anchor="middle" x="168.5" y="-67.8" font-family="Times,serif" font-size="14.00">Pluggable Components</text>
</g>
<g id="clust2" class="cluster">
<title>cluster_enum</title>
<polygon fill="#f5f5f5" stroke="#f5f5f5" points="337,-8 337,-83 548,-83 548,-8 337,-8"/>
<text text-anchor="middle" x="442.5" y="-67.8" font-family="Times,serif" font-size="14.00">Library Enumeration</text>
</g>
<!-- TACTICS -->
<g id="node1" class="node">
<title>TACTICS</title>
<path fill="#ffd700" stroke="black" stroke-width="2" d="M252.5,-127C252.5,-127 165.5,-127 165.5,-127 159.5,-127 153.5,-121 153.5,-115 153.5,-115 153.5,-103 153.5,-103 153.5,-97 159.5,-91 165.5,-91 165.5,-91 252.5,-91 252.5,-91 258.5,-91 264.5,-97 264.5,-103 264.5,-103 264.5,-115 264.5,-115 264.5,-121 258.5,-127 252.5,-127"/>
<text text-anchor="middle" x="209" y="-112" font-family="Helvetica,sans-Serif" font-size="10.00">TACTICS</text>
<text text-anchor="middle" x="209" y="-101" font-family="Helvetica,sans-Serif" font-size="10.00">Thompson Sampler</text>
</g>
<!-- Strategies -->
<g id="node2" class="node">
<title>Strategies</title>
<path fill="#ffb6c1" stroke="black" d="M309,-52C309,-52 227,-52 227,-52 221,-52 215,-46 215,-40 215,-40 215,-28 215,-28 215,-22 221,-16 227,-16 227,-16 309,-16 309,-16 315,-16 321,-22 321,-28 321,-28 321,-40 321,-40 321,-46 315,-52 309,-52"/>
<text text-anchor="middle" x="268" y="-37" font-family="Helvetica,sans-Serif" font-size="10.00">Selection Strategy</text>
<text text-anchor="middle" x="268" y="-26" font-family="Helvetica,sans-Serif" font-size="10.00">(5 options)</text>
</g>
<!-- TACTICS&#45;&gt;Strategies -->
<g id="edge2" class="edge">
<title>TACTICS&#45;&gt;Strategies</title>
<path fill="none" stroke="black" d="M222.98,-90.7C230.33,-81.61 239.47,-70.3 247.6,-60.25"/>
<polygon fill="black" stroke="black" points="250.55,-62.15 254.12,-52.18 245.11,-57.75 250.55,-62.15"/>
</g>
<!-- Warmups -->
<g id="node3" class="node">
<title>Warmups</title>
<path fill="#00ced1" stroke="black" d="M188.5,-52C188.5,-52 111.5,-52 111.5,-52 105.5,-52 99.5,-46 99.5,-40 99.5,-40 99.5,-28 99.5,-28 99.5,-22 105.5,-16 111.5,-16 111.5,-16 188.5,-16 188.5,-16 194.5,-16 200.5,-22 200.5,-28 200.5,-28 200.5,-40 200.5,-40 200.5,-46 194.5,-52 188.5,-52"/>
<text text-anchor="middle" x="150" y="-37" font-family="Helvetica,sans-Serif" font-size="10.00">Warmup Strategy</text>
<text text-anchor="middle" x="150" y="-26" font-family="Helvetica,sans-Serif" font-size="10.00">(3 options)</text>
</g>
<!-- TACTICS&#45;&gt;Warmups -->
<g id="edge3" class="edge">
<title>TACTICS&#45;&gt;Warmups</title>
<path fill="none" stroke="black" d="M195.02,-90.7C187.67,-81.61 178.53,-70.3 170.4,-60.25"/>
<polygon fill="black" stroke="black" points="172.89,-57.75 163.88,-52.18 167.45,-62.15 172.89,-57.75"/>
</g>
<!-- Evaluators -->
<g id="node4" class="node">
<title>Evaluators</title>
<path fill="#dda0dd" stroke="black" d="M73.5,-52C73.5,-52 28.5,-52 28.5,-52 22.5,-52 16.5,-46 16.5,-40 16.5,-40 16.5,-28 16.5,-28 16.5,-22 22.5,-16 28.5,-16 28.5,-16 73.5,-16 73.5,-16 79.5,-16 85.5,-22 85.5,-28 85.5,-28 85.5,-40 85.5,-40 85.5,-46 79.5,-52 73.5,-52"/>
<text text-anchor="middle" x="51" y="-37" font-family="Helvetica,sans-Serif" font-size="10.00">Evaluator</text>
<text text-anchor="middle" x="51" y="-26" font-family="Helvetica,sans-Serif" font-size="10.00">(7 options)</text>
</g>
<!-- TACTICS&#45;&gt;Evaluators -->
<g id="edge4" class="edge">
<title>TACTICS&#45;&gt;Evaluators</title>
<path fill="none" stroke="black" d="M153.23,-103.32C133.2,-99.8 111.11,-93.66 93,-83 83.41,-77.35 74.88,-68.74 68.05,-60.37"/>
<polygon fill="black" stroke="black" points="70.66,-58.02 61.81,-52.18 65.09,-62.26 70.66,-58.02"/>
</g>
<!-- Pipeline -->
<g id="node5" class="node">
<title>Pipeline</title>
<path fill="#dcdcdc" stroke="black" d="M527.5,-52C527.5,-52 448.5,-52 448.5,-52 442.5,-52 436.5,-46 436.5,-40 436.5,-40 436.5,-28 436.5,-28 436.5,-22 442.5,-16 448.5,-16 448.5,-16 527.5,-16 527.5,-16 533.5,-16 539.5,-22 539.5,-28 539.5,-28 539.5,-40 539.5,-40 539.5,-46 533.5,-52 527.5,-52"/>
<text text-anchor="middle" x="488" y="-31.5" font-family="Helvetica,sans-Serif" font-size="10.00">SynthesisPipeline</text>
</g>
<!-- TACTICS&#45;&gt;Pipeline -->
<g id="edge5" class="edge">
<title>TACTICS&#45;&gt;Pipeline</title>
<path fill="none" stroke="black" stroke-dasharray="5,2" d="M264.61,-105.33C320.11,-102.02 401.17,-95.26 430,-83 442.91,-77.51 455.19,-68.19 465.09,-59.21"/>
<polygon fill="black" stroke="black" points="467.67,-61.6 472.5,-52.17 462.84,-56.53 467.67,-61.6"/>
</g>
<!-- ReactionDef -->
<g id="node6" class="node">
<title>ReactionDef</title>
<path fill="#dcdcdc" stroke="black" d="M410.5,-52C410.5,-52 357.5,-52 357.5,-52 351.5,-52 345.5,-46 345.5,-40 345.5,-40 345.5,-28 345.5,-28 345.5,-22 351.5,-16 357.5,-16 357.5,-16 410.5,-16 410.5,-16 416.5,-16 422.5,-22 422.5,-28 422.5,-28 422.5,-40 422.5,-40 422.5,-46 416.5,-52 410.5,-52"/>
<text text-anchor="middle" x="384" y="-31.5" font-family="Helvetica,sans-Serif" font-size="10.00">ReactionDef</text>
</g>
<!-- Config -->
<g id="node7" class="node">
<title>Config</title>
<path fill="#98fb98" stroke="black" d="M269,-192C269,-192 149,-192 149,-192 143,-192 137,-186 137,-180 137,-180 137,-168 137,-168 137,-162 143,-156 149,-156 149,-156 269,-156 269,-156 275,-156 281,-162 281,-168 281,-168 281,-180 281,-180 281,-186 275,-192 269,-192"/>
<text text-anchor="middle" x="209" y="-177" font-family="Helvetica,sans-Serif" font-size="10.00">ThompsonSamplingConfig</text>
<text text-anchor="middle" x="209" y="-166" font-family="Helvetica,sans-Serif" font-size="10.00">(Pydantic v2)</text>
</g>
<!-- Config&#45;&gt;TACTICS -->
<g id="edge1" class="edge">
<title>Config&#45;&gt;TACTICS</title>
<path fill="none" stroke="black" stroke-width="2" d="M209,-155.78C209,-150.09 209,-143.61 209,-137.34"/>
<polygon fill="black" stroke="black" stroke-width="2" points="212.5,-137.19 209,-127.19 205.5,-137.19 212.5,-137.19"/>
</g>
</g>
</svg>
