<?xml version="1.0" encoding="UTF-8" standalone="no"?>
<!DOCTYPE svg PUBLIC "-//W3C//DTD SVG 1.1//EN"
 "http://www.w3.org/Graphics/SVG/1.1/DTD/svg11.dtd">
<!-- Generated by graphviz version 2.43.0 (0)
 -->
<!-- Title: LibraryAnalysis Pages: 1 -->
<svg width="442pt" height="415pt"
 viewBox="0.00 0.00 442.00 415.25" xmlns="http://www.w3.org/2000/svg" xmlns:xlink="http://www.w3.org/1999/xlink">
<g id="graph0" class="graph" transform="scale(1 1) rotate(0) translate(4 411.25)">
<title>LibraryAnalysis</title>
<polygon fill="white" stroke="transparent" points="-4,4 -4,-411.25 438,-411.25 438,4 -4,4"/>
<g id="clust1" class="cluster">
<title>cluster_input</title>
<polygon fill="lightblue" stroke="lightblue" points="16,-308 16,-399.25 318,-399.25 318,-308 16,-308"/>
<text text-anchor="middle" x="167" y="-384.05" font-family="Times,serif" font-size="14.00">Input Data</text>
</g>
<g id="clust2" class="cluster">
<title>cluster_analysis</title>
<polygon fill="lightyellow" stroke="lightyellow" points="8,-208 8,-300 182,-300 182,-208 8,-208"/>
<text text-anchor="middle" x="95" y="-284.8" font-family="Times,serif" font-size="14.00">Analysis</text>
</g>
<g id="clust3" class="cluster">
<title>cluster_viz</title>
<polygon fill="lightgreen" stroke="lightgreen" points="9,-93 9,-200 323,-200 323,-93 9,-93"/>
<text text-anchor="middle" x="166" y="-184.8" font-family="Times,serif" font-size="14.00">Visualization</text>
</g>
<g id="clust4" class="cluster">
<title>cluster_output</title>
<polygon fill="lavender" stroke="lavender" points="15,-8 15,-85 426,-85 426,-8 15,-8"/>
<text text-anchor="middle" x="220.5" y="-69.8" font-family="Times,serif" font-size="14.00">Outputs</text>
</g>
<!-- Results -->
<g id="node1" class="node">
<title>Results</title>
<path fill="lightblue" stroke="black" d="M170,-363.6C170,-366.24 137.28,-368.38 97,-368.38 56.72,-368.38 24,-366.24 24,-363.6 24,-363.6 24,-320.65 24,-320.65 24,-318.01 56.72,-315.87 97,-315.87 137.28,-315.87 170,-318.01 170,-320.65 170,-320.65 170,-363.6 170,-363.6"/>
<path fill="none" stroke="black" d="M170,-363.6C170,-360.97 137.28,-358.83 97,-358.83 56.72,-358.83 24,-360.97 24,-363.6"/>
<text text-anchor="middle" x="97" y="-345.93" font-family="Helvetica,sans-Serif" font-size="14.00">Results DataFrame</text>
<text text-anchor="middle" x="97" y="-330.93" font-family="Helvetica,sans-Serif" font-size="14.00">(Polars)</text>
</g>
<!-- LibraryAnalysis -->
<g id="node3" class="node">
<title>LibraryAnalysis</title>
<path fill="gold" stroke="black" d="M162.5,-269C162.5,-269 27.5,-269 27.5,-269 21.5,-269 15.5,-263 15.5,-257 15.5,-257 15.5,-228 15.5,-228 15.5,-222 21.5,-216 27.5,-216 27.5,-216 162.5,-216 162.5,-216 168.5,-216 174.5,-222 174.5,-228 174.5,-228 174.5,-257 174.5,-257 174.5,-263 168.5,-269 162.5,-269"/>
<text text-anchor="middle" x="95" y="-253.8" font-family="Helvetica,sans-Serif" font-size="14.00">LibraryAnalysis</text>
<text text-anchor="middle" x="95" y="-238.8" font-family="Helvetica,sans-Serif" font-size="14.00">&#45; Top building blocks</text>
<text text-anchor="middle" x="95" y="-223.8" font-family="Helvetica,sans-Serif" font-size="14.00">&#45; Overlap analysis</text>
</g>
<!-- Results&#45;&gt;LibraryAnalysis -->
<g id="edge1" class="edge">
<title>Results&#45;&gt;LibraryAnalysis</title>
<path fill="none" stroke="black" d="M96.48,-315.98C96.26,-304.89 95.99,-291.63 95.74,-279.51"/>
<polygon fill="black" stroke="black" points="99.23,-279.16 95.53,-269.24 92.23,-279.31 99.23,-279.16"/>
</g>
<!-- Reference -->
<g id="node2" class="node">
<title>Reference</title>
<path fill="lightblue" stroke="black" d="M310,-363.6C310,-366.24 282.66,-368.38 249,-368.38 215.34,-368.38 188,-366.24 188,-363.6 188,-363.6 188,-320.65 188,-320.65 188,-318.01 215.34,-315.87 249,-315.87 282.66,-315.87 310,-318.01 310,-320.65 310,-320.65 310,-363.6 310,-363.6"/>
<path fill="none" stroke="black" d="M310,-363.6C310,-360.97 282.66,-358.83 249,-358.83 215.34,-358.83 188,-360.97 188,-363.6"/>
<text text-anchor="middle" x="249" y="-345.93" font-family="Helvetica,sans-Serif" font-size="14.00">Reference Data</text>
<text text-anchor="middle" x="249" y="-330.93" font-family="Helvetica,sans-Serif" font-size="14.00">(Ground Truth)</text>
</g>
<!-- TS_Benchmarks -->
<g id="node5" class="node">
<title>TS_Benchmarks</title>
<path fill="lightgreen" stroke="black" d="M303,-169C303,-169 199,-169 199,-169 193,-169 187,-163 187,-157 187,-157 187,-113 187,-113 187,-107 193,-101 199,-101 199,-101 303,-101 303,-101 309,-101 315,-107 315,-113 315,-113 315,-157 315,-157 315,-163 309,-169 303,-169"/>
<text text-anchor="middle" x="251" y="-153.8" font-family="Helvetica,sans-Serif" font-size="14.00">TS_Benchmarks</text>
<text text-anchor="middle" x="251" y="-138.8" font-family="Helvetica,sans-Serif" font-size="14.00">&#45; Strip plots</text>
<text text-anchor="middle" x="251" y="-123.8" font-family="Helvetica,sans-Serif" font-size="14.00">&#45; Bar plots</text>
<text text-anchor="middle" x="251" y="-108.8" font-family="Helvetica,sans-Serif" font-size="14.00">&#45; Line plots</text>
</g>
<!-- Reference&#45;&gt;TS_Benchmarks -->
<g id="edge2" class="edge">
<title>Reference&#45;&gt;TS_Benchmarks</title>
<path fill="none" stroke="black" d="M249.25,-315.97C249.58,-281.95 250.17,-220.75 250.58,-179.26"/>
<polygon fill="black" stroke="black" points="254.08,-179.2 250.68,-169.17 247.08,-179.14 254.08,-179.2"/>
</g>
<!-- LibraryVisualization -->
<g id="node4" class="node">
<title>LibraryVisualization</title>
<path fill="lightgreen" stroke="black" d="M157,-161.5C157,-161.5 29,-161.5 29,-161.5 23,-161.5 17,-155.5 17,-149.5 17,-149.5 17,-120.5 17,-120.5 17,-114.5 23,-108.5 29,-108.5 29,-108.5 157,-108.5 157,-108.5 163,-108.5 169,-114.5 169,-120.5 169,-120.5 169,-149.5 169,-149.5 169,-155.5 163,-161.5 157,-161.5"/>
<text text-anchor="middle" x="93" y="-146.3" font-family="Helvetica,sans-Serif" font-size="14.00">LibraryVisualization</text>
<text text-anchor="middle" x="93" y="-131.3" font-family="Helvetica,sans-Serif" font-size="14.00">&#45; Structure grids</text>
<text text-anchor="middle" x="93" y="-116.3" font-family="Helvetica,sans-Serif" font-size="14.00">&#45; Comparison plots</text>
</g>
<!-- LibraryAnalysis&#45;&gt;LibraryVisualization -->
<g id="edge3" class="edge">
<title>LibraryAnalysis&#45;&gt;LibraryVisualization</title>
<path fill="none" stroke="black" d="M94.52,-215.96C94.26,-202.71 93.95,-186.31 93.68,-171.81"/>
<polygon fill="black" stroke="black" points="97.18,-171.6 93.49,-161.67 90.18,-171.73 97.18,-171.6"/>
</g>
<!-- Plots -->
<g id="node6" class="node">
<title>Plots</title>
<path fill="lavender" stroke="black" d="M277,-54C277,-54 173,-54 173,-54 167,-54 161,-48 161,-42 161,-42 161,-28 161,-28 161,-22 167,-16 173,-16 173,-16 277,-16 277,-16 283,-16 289,-22 289,-28 289,-28 289,-42 289,-42 289,-48 283,-54 277,-54"/>
<text text-anchor="middle" x="225" y="-38.8" font-family="Helvetica,sans-Serif" font-size="14.00">Interactive Plots</text>
<text text-anchor="middle" x="225" y="-23.8" font-family="Helvetica,sans-Serif" font-size="14.00">(Altair)</text>
</g>
<!-- LibraryVisualization&#45;&gt;Plots -->
<g id="edge4" class="edge">
<title>LibraryVisualization&#45;&gt;Plots</title>
<path fill="none" stroke="black" d="M127.68,-108.25C147.73,-93.37 172.8,-74.75 192.48,-60.15"/>
<polygon fill="black" stroke="black" points="194.61,-62.92 200.55,-54.15 190.43,-57.3 194.61,-62.92"/>
</g>
<!-- MolGrids -->
<g id="node7" class="node">
<title>MolGrids</title>
<path fill="lavender" stroke="black" d="M130.5,-54C130.5,-54 35.5,-54 35.5,-54 29.5,-54 23.5,-48 23.5,-42 23.5,-42 23.5,-28 23.5,-28 23.5,-22 29.5,-16 35.5,-16 35.5,-16 130.5,-16 130.5,-16 136.5,-16 142.5,-22 142.5,-28 142.5,-28 142.5,-42 142.5,-42 142.5,-48 136.5,-54 130.5,-54"/>
<text text-anchor="middle" x="83" y="-38.8" font-family="Helvetica,sans-Serif" font-size="14.00">Molecule Grids</text>
<text text-anchor="middle" x="83" y="-23.8" font-family="Helvetica,sans-Serif" font-size="14.00">(RDKit)</text>
</g>
<!-- LibraryVisualization&#45;&gt;MolGrids -->
<g id="edge5" class="edge">
<title>LibraryVisualization&#45;&gt;MolGrids</title>
<path fill="none" stroke="black" d="M90.37,-108.25C88.99,-94.69 87.29,-78.05 85.87,-64.15"/>
<polygon fill="black" stroke="black" points="89.35,-63.75 84.85,-54.15 82.39,-64.46 89.35,-63.75"/>
</g>
<!-- TS_Benchmarks&#45;&gt;Plots -->
<g id="edge6" class="edge">
<title>TS_Benchmarks&#45;&gt;Plots</title>
<path fill="none" stroke="black" d="M242.2,-100.82C239.02,-88.83 235.46,-75.43 232.41,-63.93"/>
<polygon fill="black" stroke="black" points="235.73,-62.78 229.78,-54.01 228.96,-64.57 235.73,-62.78"/>
</g>
<!-- Stats -->
<g id="node8" class="node">
<title>Stats</title>
<path fill="lavender" stroke="black" d="M406.5,-54C406.5,-54 319.5,-54 319.5,-54 313.5,-54 307.5,-48 307.5,-42 307.5,-42 307.5,-28 307.5,-28 307.5,-22 313.5,-16 319.5,-16 319.5,-16 406.5,-16 406.5,-16 412.5,-16 418.5,-22 418.5,-28 418.5,-28 418.5,-42 418.5,-42 418.5,-48 412.5,-54 406.5,-54"/>
<text text-anchor="middle" x="363" y="-38.8" font-family="Helvetica,sans-Serif" font-size="14.00">Statistics</text>
<text text-anchor="middle" x="363" y="-23.8" font-family="Helvetica,sans-Serif" font-size="14.00">&amp; Summaries</text>
</g>
<!-- TS_Benchmarks&#45;&gt;Stats -->
<g id="edge7" class="edge">
<title>TS_Benchmarks&#45;&gt;Stats</title>
<path fill="none" stroke="black" d="M288.92,-100.82C303.88,-87.73 320.77,-72.95 334.64,-60.82"/>
<polygon fill="black" stroke="black" points="337.2,-63.23 342.42,-54.01 332.59,-57.96 337.2,-63.23"/>
</g>
</g>
</svg>
