<?xml version="1.0" encoding="UTF-8" standalone="no"?>
<!DOCTYPE svg PUBLIC "-//W3C//DTD SVG 1.1//EN"
 "http://www.w3.org/Graphics/SVG/1.1/DTD/svg11.dtd">
<!-- Generated by graphviz version 2.43.0 (0)
 -->
<!-- Title: DataFlow Pages: 1 -->
<svg width="300pt" height="393pt"
 viewBox="0.00 0.00 300.00 393.25" xmlns="http://www.w3.org/2000/svg" xmlns:xlink="http://www.w3.org/1999/xlink">
<g id="graph0" class="graph" transform="scale(1 1) rotate(0) translate(4 389.25)">
<title>DataFlow</title>
<polygon fill="white" stroke="transparent" points="-4,4 -4,-389.25 296,-389.25 296,4 -4,4"/>
<!-- Reagents -->
<g id="node1" class="node">
<title>Reagents</title>
<polygon fill="#add8e6" stroke="black" points="246,-385.25 243,-389.25 222,-389.25 219,-385.25 132,-385.25 132,-349.25 246,-349.25 246,-385.25"/>
<text text-anchor="middle" x="189" y="-364.75" font-family="Helvetica,sans-Serif" font-size="10.00">Reagent Files (.smi)</text>
</g>
<!-- Config -->
<g id="node2" class="node">
<title>Config</title>
<path fill="#fffacd" stroke="black" d="M218,-318.25C218,-318.25 160,-318.25 160,-318.25 154,-318.25 148,-312.25 148,-306.25 148,-306.25 148,-294.25 148,-294.25 148,-288.25 154,-282.25 160,-282.25 160,-282.25 218,-282.25 218,-282.25 224,-282.25 230,-288.25 230,-294.25 230,-294.25 230,-306.25 230,-306.25 230,-312.25 224,-318.25 218,-318.25"/>
<text text-anchor="middle" x="189" y="-297.75" font-family="Helvetica,sans-Serif" font-size="10.00">Configuration</text>
</g>
<!-- Reagents&#45;&gt;Config -->
<g id="edge1" class="edge">
<title>Reagents&#45;&gt;Config</title>
<path fill="none" stroke="black" d="M189,-349.17C189,-342.95 189,-335.75 189,-328.85"/>
<polygon fill="black" stroke="black" points="192.5,-328.44 189,-318.44 185.5,-328.44 192.5,-328.44"/>
</g>
<!-- Warmup -->
<g id="node3" class="node">
<title>Warmup</title>
<path fill="#e0ffff" stroke="black" d="M225.5,-251.25C225.5,-251.25 152.5,-251.25 152.5,-251.25 146.5,-251.25 140.5,-245.25 140.5,-239.25 140.5,-239.25 140.5,-227.25 140.5,-227.25 140.5,-221.25 146.5,-215.25 152.5,-215.25 152.5,-215.25 225.5,-215.25 225.5,-215.25 231.5,-215.25 237.5,-221.25 237.5,-227.25 237.5,-227.25 237.5,-239.25 237.5,-239.25 237.5,-245.25 231.5,-251.25 225.5,-251.25"/>
<text text-anchor="middle" x="189" y="-236.25" font-family="Helvetica,sans-Serif" font-size="10.00">Warmup Phase</text>
<text text-anchor="middle" x="189" y="-225.25" font-family="Helvetica,sans-Serif" font-size="10.00">(Initialize Priors)</text>
</g>
<!-- Config&#45;&gt;Warmup -->
<g id="edge2" class="edge">
<title>Config&#45;&gt;Warmup</title>
<path fill="none" stroke="black" d="M189,-282.17C189,-275.95 189,-268.75 189,-261.85"/>
<polygon fill="black" stroke="black" points="192.5,-261.44 189,-251.44 185.5,-261.44 192.5,-261.44"/>
</g>
<!-- Search -->
<g id="node4" class="node">
<title>Search</title>
<path fill="#ffd700" stroke="black" d="M239,-184.25C239,-184.25 139,-184.25 139,-184.25 133,-184.25 127,-178.25 127,-172.25 127,-172.25 127,-160.25 127,-160.25 127,-154.25 133,-148.25 139,-148.25 139,-148.25 239,-148.25 239,-148.25 245,-148.25 251,-154.25 251,-160.25 251,-160.25 251,-172.25 251,-172.25 251,-178.25 245,-184.25 239,-184.25"/>
<text text-anchor="middle" x="189" y="-169.25" font-family="Helvetica,sans-Serif" font-size="10.00">Search Phase</text>
<text text-anchor="middle" x="189" y="-158.25" font-family="Helvetica,sans-Serif" font-size="10.00">(Thompson Sampling)</text>
</g>
<!-- Warmup&#45;&gt;Search -->
<g id="edge3" class="edge">
<title>Warmup&#45;&gt;Search</title>
<path fill="none" stroke="black" d="M189,-215.17C189,-208.95 189,-201.75 189,-194.85"/>
<polygon fill="black" stroke="black" points="192.5,-194.44 189,-184.44 185.5,-194.44 192.5,-194.44"/>
</g>
<!-- Evaluate -->
<g id="node5" class="node">
<title>Evaluate</title>
<path fill="#e6e6fa" stroke="black" d="M100,-105.62C100,-105.62 12,-105.62 12,-105.62 6,-105.62 0,-99.62 0,-93.62 0,-93.62 0,-81.62 0,-81.62 0,-75.62 6,-69.62 12,-69.62 12,-69.62 100,-69.62 100,-69.62 106,-69.62 112,-75.62 112,-81.62 112,-81.62 112,-93.62 112,-93.62 112,-99.62 106,-105.62 100,-105.62"/>
<text text-anchor="middle" x="56" y="-90.62" font-family="Helvetica,sans-Serif" font-size="10.00">Evaluate</text>
<text text-anchor="middle" x="56" y="-79.62" font-family="Helvetica,sans-Serif" font-size="10.00">(Score Compounds)</text>
</g>
<!-- Search&#45;&gt;Evaluate -->
<g id="edge4" class="edge">
<title>Search&#45;&gt;Evaluate</title>
<path fill="none" stroke="black" d="M159.48,-148.24C140.42,-137.26 115.4,-122.85 94.75,-110.95"/>
<polygon fill="black" stroke="black" points="96.31,-107.81 85.89,-105.85 92.81,-113.87 96.31,-107.81"/>
</g>
<!-- Results -->
<g id="node7" class="node">
<title>Results</title>
<path fill="#add8e6" stroke="black" d="M244,-104.6C244,-106.68 219.35,-108.38 189,-108.38 158.65,-108.38 134,-106.68 134,-104.6 134,-104.6 134,-70.65 134,-70.65 134,-68.57 158.65,-66.87 189,-66.87 219.35,-66.87 244,-68.57 244,-70.65 244,-70.65 244,-104.6 244,-104.6"/>
<path fill="none" stroke="black" d="M244,-104.6C244,-102.52 219.35,-100.83 189,-100.83 158.65,-100.83 134,-102.52 134,-104.6"/>
<text text-anchor="middle" x="189" y="-90.62" font-family="Helvetica,sans-Serif" font-size="10.00">Results DataFrame</text>
<text text-anchor="middle" x="189" y="-79.62" font-family="Helvetica,sans-Serif" font-size="10.00">(Polars)</text>
</g>
<!-- Search&#45;&gt;Results -->
<g id="edge7" class="edge">
<title>Search&#45;&gt;Results</title>
<path fill="none" stroke="black" d="M189,-148.24C189,-139.47 189,-128.52 189,-118.4"/>
<polygon fill="black" stroke="black" points="192.5,-118.29 189,-108.29 185.5,-118.29 192.5,-118.29"/>
<text text-anchor="middle" x="210.5" y="-126.05" font-family="Helvetica,sans-Serif" font-size="9.00">complete</text>
</g>
<!-- Update -->
<g id="node6" class="node">
<title>Update</title>
<path fill="#90ee90" stroke="black" d="M212,-36C212,-36 132,-36 132,-36 126,-36 120,-30 120,-24 120,-24 120,-12 120,-12 120,-6 126,0 132,0 132,0 212,0 212,0 218,0 224,-6 224,-12 224,-12 224,-24 224,-24 224,-30 218,-36 212,-36"/>
<text text-anchor="middle" x="172" y="-21" font-family="Helvetica,sans-Serif" font-size="10.00">Update Posteriors</text>
<text text-anchor="middle" x="172" y="-10" font-family="Helvetica,sans-Serif" font-size="10.00">(Bayesian)</text>
</g>
<!-- Evaluate&#45;&gt;Update -->
<g id="edge5" class="edge">
<title>Evaluate&#45;&gt;Update</title>
<path fill="none" stroke="black" d="M85.27,-69.56C99.97,-60.99 117.96,-50.5 133.74,-41.3"/>
<polygon fill="black" stroke="black" points="135.86,-44.12 142.74,-36.06 132.34,-38.07 135.86,-44.12"/>
</g>
<!-- Update&#45;&gt;Search -->
<g id="edge6" class="edge">
<title>Update&#45;&gt;Search</title>
<path fill="none" stroke="black" stroke-dasharray="5,2" d="M220.25,-36.05C233.91,-43.37 247.18,-53.45 255,-67 270.25,-93.43 258.96,-112.07 237,-133.25 233.75,-136.39 230.15,-139.41 226.44,-142.26"/>
<polygon fill="black" stroke="black" points="224.25,-139.53 218.19,-148.22 228.35,-145.2 224.25,-139.53"/>
<text text-anchor="middle" x="277" y="-85.42" font-family="Helvetica,sans-Serif" font-size="9.00">iterate</text>
</g>
</g>
</svg>
